<svg width="403" height="318" viewBox="0 0 403 318" fill="none" xmlns="http://www.w3.org/2000/svg">
<g clip-path="url(#clip0)">
<path opacity="0.37" d="M50.893 258.752H10.6321C-0.156259 247.559 -3.04879 229.715 3.43986 215.548C9.53763 202.086 22.7495 193.164 30.7235 180.641C47.766 154.03 39.5574 114.27 62.6195 92.7468C74.1896 81.9459 90.8412 78.8935 106.555 77.6412C122.268 76.3889 138.529 76.3889 153.148 70.2841C171.129 62.6921 184.653 46.4908 203.103 40.386C223.898 33.4984 248.68 42.1078 260.875 60.2658C268.458 71.6929 271.351 86.0158 280.341 96.3471C294.882 113.096 320.446 114.349 338.504 127.106C350.935 135.872 359.299 150.117 360.941 165.222C362.896 183.459 355.938 204.199 366.883 218.914C372.199 226.114 380.876 230.106 386.583 236.993C392.29 243.803 393.932 250.064 392.134 258.752H50.893Z" fill="url(#paint0_linear)"/>
<path opacity="0.37" d="M61.1342 258.752H20.8733C10.085 247.559 7.19242 229.715 13.6811 215.548C19.7788 202.086 32.9907 193.164 40.9647 180.641C58.0072 154.03 49.7986 114.27 72.8607 92.7468C84.4308 81.9459 101.082 78.8935 116.796 77.6412C132.509 76.3889 148.77 76.3889 163.389 70.2841C181.37 62.6921 194.894 46.4908 213.344 40.386C234.139 33.4984 258.921 42.1078 271.116 60.2658C278.699 71.6929 281.592 86.0158 290.582 96.3471C305.123 113.096 330.687 114.349 348.746 127.106C361.176 135.872 369.541 150.117 371.182 165.222C373.137 183.459 366.179 204.199 377.124 218.914C382.44 226.114 391.117 230.106 396.824 236.993C402.531 243.803 404.173 250.064 402.375 258.752H61.1342Z" fill="url(#paint1_linear)"/>
<path d="M153.773 120.766L152.132 120.845H2.42352L2.03264 120.923C0.547283 110.983 8.28676 100.887 18.137 98.2255C26.6582 95.8775 36.6648 97.9907 43.8571 92.7468C50.2676 88.0507 51.9093 79.2848 56.0526 72.5538C58.6325 68.3274 62.3849 64.8053 66.7628 62.5356C72.2352 59.5614 79.0365 58.544 84.5871 61.205C94.5155 65.9011 96.3917 79.05 103.037 87.8159C104.522 89.7726 106.398 91.5728 108.744 92.2772C110.933 92.9033 113.278 92.4337 115.467 92.0424C122.815 90.7118 131.571 90.8683 136.105 96.7384C138.216 99.4777 138.998 103.078 140.171 106.365C141.343 109.652 143.298 113.018 146.581 114.192C148.145 114.74 149.943 114.74 151.35 115.679C153.148 116.697 153.695 118.653 153.773 120.766Z" fill="url(#paint2_linear)"/>
<path d="M394.557 139.707H219.989C218.582 137.907 218.425 135.011 219.441 132.898C220.692 130.002 223.428 128.123 226.086 126.48C228.744 124.836 231.637 123.349 233.67 121.001C237.5 116.383 237.266 109.809 238.126 103.861C239.142 96.8166 242.113 89.8508 247.429 85.0765C249.539 83.1981 251.963 81.711 254.543 80.537C261.891 77.0932 270.882 76.3105 277.761 80.537C284.328 84.6069 287.533 92.4336 293.24 97.6775C294.569 98.9298 296.133 100.026 297.931 100.417C303.012 101.591 307.39 96.9731 311.221 93.3728C316.693 88.2854 323.963 84.5286 331.312 85.4678C339.99 86.5635 346.713 94.0772 349.996 102.139C351.403 105.504 352.42 109.261 355.156 111.687C362.192 117.87 373.996 110.905 382.205 115.444C385.254 117.166 387.365 120.218 389.006 123.271C391.586 128.358 393.541 133.915 394.557 139.707Z" fill="url(#paint3_linear)"/>
<path d="M150.334 236.68H137.747V258.752H107.337V236.68H61.916V214.061L109.369 144.638H137.825V213.67H150.412V236.68H150.334ZM107.337 213.591V200.286C107.337 197.781 107.415 194.416 107.571 190.189C107.727 185.963 107.884 183.693 107.962 183.537H107.102C105.304 187.528 103.35 191.285 101.082 194.807L88.4179 213.591H107.337Z" fill="url(#paint4_linear)"/>
<path d="M142.047 236.68H129.46V258.752H99.0498V236.68H53.551V214.061L101.004 144.638H129.46V213.67H142.047V236.68ZM99.0498 213.591V200.286C99.0498 197.781 99.1279 194.416 99.2843 190.189C99.4407 185.963 99.597 183.693 99.6752 183.537H98.8152C97.0172 187.528 95.0628 191.285 92.7956 194.807L80.131 213.591H99.0498Z" fill="url(#paint5_linear)"/>
<path d="M348.824 237.385L344.446 214.765L336.315 216.331L332.172 217.113L319.117 149.334L291.129 154.734L257.748 231.906L262.048 254.134L306.687 245.525L309.266 258.673H340.224L336.55 239.733L340.693 238.95L348.824 237.385ZM294.1 224.549L283.781 226.506L291.129 209.13L292.615 205.608C294.178 201.773 295.429 197.703 296.367 193.398L297.227 193.242C297.149 193.477 297.462 195.668 298.087 199.895C298.713 204.121 299.26 207.408 299.729 209.835L302.23 222.905L294.1 224.549Z" fill="url(#paint6_linear)"/>
<path d="M340.693 239.028L336.316 216.409L323.964 218.757L310.83 150.978L291.051 154.813L282.921 156.378L249.54 233.55L253.839 255.777L261.97 254.212L298.478 247.168L300.745 258.752H331.703L328.341 241.376L336.472 239.811L340.693 239.028ZM291.129 209.208C291.286 210.069 291.442 210.852 291.52 211.556L294.022 224.627L275.572 228.227L284.406 207.33C285.97 203.495 287.221 199.425 288.159 195.12L289.019 194.964C288.941 195.199 289.253 197.39 289.879 201.616C290.348 204.512 290.817 207.095 291.129 209.208Z" fill="url(#paint7_linear)"/>
<path d="M154.555 200.834H135.949L124.144 114.349C124.144 114.349 107.102 95.7209 87.5576 92.1989L106.164 90.1639L148.144 91.3379L154.555 200.834Z" fill="url(#paint8_linear)"/>
<path d="M81.3035 153.326C81.3035 153.326 70.7497 168.823 75.4402 182.05L95.0626 153.326L92.4827 149.882L81.3035 153.326Z" fill="#111023"/>
<path d="M136.027 200.834L135.402 204.825C135.402 204.825 129.773 205.608 129.46 213.591H144.001L151.897 205.843L152.6 200.834H136.027Z" fill="#111023"/>
<path d="M113.512 114.27L90.2157 113.409L93.9681 149.099L78.1765 154.734L69.108 110.67C66.45 102.452 72.0005 93.8425 80.5999 92.9033L87.5577 92.1206C107.102 95.6426 124.144 114.27 124.144 114.27H113.512Z" fill="url(#paint9_linear)"/>
<path d="M70.6715 14.7142V15.7317L69.4207 15.8882C69.108 15.1838 68.7171 14.636 68.4044 14.3229C66.6845 12.8358 65.5119 11.7401 64.3392 12.4445C63.4011 12.9924 63.4793 15.4969 63.5575 16.6709L60.1177 17.1405L29.707 20.9756V20.8974C31.6614 20.4278 33.225 16.9057 33.225 12.601C33.225 8.37459 31.7396 4.85256 29.7852 4.30469L70.6715 8.92246V9.7834V14.7142Z" fill="url(#paint10_linear)"/>
<path d="M31.9741 6.49621C31.8959 6.65275 31.8177 6.73101 31.7396 6.88755C31.2705 7.74849 31.1142 8.6877 30.5669 9.47037C30.176 10.0182 29.6288 10.4878 28.9252 10.7226C28.2216 10.9574 27.518 11.0357 26.7363 11.114C26.2672 11.1922 25.72 11.2705 25.3291 11.5053C25.5636 7.43542 27.1272 4.30473 29.1597 4.14819L29.7852 4.22646C30.6451 4.53953 31.4269 5.3222 31.9741 6.49621Z" fill="url(#paint11_linear)"/>
<path d="M33.2249 11.8966C32.6776 12.601 32.4431 13.462 31.9741 14.1664C31.4268 14.9491 30.5669 15.5752 29.6288 15.81C28.7688 16.0448 27.8307 15.8883 26.9708 16.2796C26.5799 16.4361 26.2672 16.8275 26.0326 17.2188C25.6418 15.8883 25.4072 14.3229 25.4072 12.601C25.4072 12.2097 25.4072 11.8966 25.4072 11.5836C25.8763 11.3488 26.3453 11.2705 26.8144 11.1922C27.518 11.114 28.2998 11.0357 29.0033 10.8009C29.6288 10.5661 30.2542 10.0965 30.6451 9.54862C31.1923 8.76595 31.4268 7.82674 31.8177 6.9658C31.8959 6.80926 31.9741 6.731 32.0522 6.57446C32.6776 7.90501 33.1467 9.78342 33.2249 11.8966Z" fill="url(#paint12_linear)"/>
<path d="M33.225 12.6009C33.225 16.9056 31.6615 20.4276 29.7071 20.8972C29.5507 20.8972 29.3944 20.9755 29.238 20.9755C27.8308 20.9755 26.6582 19.4884 25.9546 17.2187C26.1891 16.8273 26.5018 16.5143 26.9709 16.2795C27.7526 15.8881 28.6908 15.9664 29.6289 15.8099C30.567 15.575 31.4269 15.0272 31.9742 14.1662C32.4432 13.4618 32.6778 12.6009 33.1468 11.9748C33.1468 11.9748 33.1468 11.9748 33.1468 11.8965C33.225 12.1313 33.225 12.3661 33.225 12.6009Z" fill="url(#paint13_linear)"/>
<path d="M94.7498 10.5659H107.024C105.773 11.1138 104.678 11.6617 104.131 12.1313C103.74 12.5226 103.896 13.1487 104.366 14.0097H94.6716V10.5659H94.7498Z" fill="#111023"/>
<path d="M122.034 12.601V13.9316H115.389C114.763 12.4445 114.294 11.1922 114.138 10.4878H122.112V12.601H122.034Z" fill="#111023"/>
<path d="M94.7497 13.9315V14.7142H70.6714V9.70508H94.7497V10.566V13.9315Z" fill="url(#paint14_linear)"/>
<path d="M71.6096 23.2453L66.2936 27.3152C66.2936 27.3152 59.8831 20.5842 60.1176 17.1405L63.5574 16.6709C63.4792 15.4969 63.401 12.9923 64.3391 12.4444C65.5118 11.74 66.6844 12.914 68.4043 14.3229C68.717 14.6359 69.1079 15.1838 69.4206 15.8882C70.6714 18.5493 71.6096 23.2453 71.6096 23.2453Z" fill="url(#paint15_linear)"/>
<path d="M35.9612 4.30465C35.5703 3.52198 34.4759 4.22639 34.7886 4.93079C36.9775 9.7051 36.6648 14.949 34.085 19.4885C33.6941 20.1929 34.7886 20.8973 35.2576 20.1146C38.072 15.2621 38.3065 9.54856 35.9612 4.30465Z" fill="#5B2B89"/>
<path d="M130.398 28.5676V32.6375L125.473 28.0198L130.398 28.5676Z" fill="url(#paint16_linear)"/>
<path d="M130.398 32.6375L135.323 37.3335L140.014 41.7947C140.014 41.7947 150.802 34.2811 154.946 34.2028C155.258 34.2028 155.493 34.2028 155.806 34.2811C159.48 34.8289 161.747 39.0554 161.122 43.2035C160.418 47.5865 160.574 52.5173 156.275 53.3C152.053 54.0827 133.369 58.6222 133.369 58.6222L112.887 30.8373L115.31 29.1154L120.704 25.3586L121.799 24.5759L124.144 26.7674L125.473 28.0197L130.398 32.6375Z" fill="url(#paint17_linear)"/>
<path d="M143.61 29.4285L155.806 34.2028C155.493 34.1245 155.258 34.1245 154.946 34.1245C150.802 34.2028 140.014 41.7164 140.014 41.7164L135.323 37.2552L143.61 29.4285Z" fill="url(#paint18_linear)"/>
<path d="M156.275 53.1435L149.161 72.4755L148.222 91.3379C148.222 91.3379 147.363 91.4944 145.955 91.7292C139.154 92.6684 118.906 95.0165 106.242 90.2422L111.167 66.8402L108.9 48.3692L81.3034 51.4216L64.0264 29.0371L66.2935 27.3153L71.6095 23.2454L87.9484 39.2119L113.512 28.0197C114.45 28.7241 115.232 29.0371 115.232 29.0371L112.809 30.759L133.291 58.5439C133.369 58.5439 152.053 54.0044 156.275 53.1435Z" fill="url(#paint19_linear)"/>
<path d="M120.626 25.2803L115.232 29.0371C115.232 29.0371 114.45 28.7241 113.512 28.0196C112.261 27.1587 110.854 25.7499 110.698 23.7149C110.463 20.9756 105.929 16.5926 104.365 13.9315C103.896 13.0706 103.74 12.4445 104.131 12.0531C104.6 11.5835 105.694 11.0356 107.023 10.4878C109.838 9.39203 113.669 8.60936 113.981 10.3312C113.981 10.4095 113.981 10.4095 113.981 10.4878C114.138 11.1922 114.607 12.4445 115.232 13.9315C117.265 18.471 120.626 25.2803 120.626 25.2803Z" fill="url(#paint20_linear)"/>
<path opacity="0.38" d="M149.161 72.5538C117.89 65.901 112.887 30.759 112.887 30.759L133.369 58.5439L156.275 53.2217L149.161 72.5538Z" fill="url(#paint21_linear)"/>
<path d="M143.376 12.3662C144.001 12.2096 144.705 12.2879 144.939 13.3837C145.565 15.8099 142.828 18.7058 142.828 18.7058L143.532 29.4285L135.245 37.3335L138.451 28.0196L130.32 28.5675L125.395 28.0196L124.066 26.7674C124.066 26.7674 123.128 17.8449 123.128 12.601C123.128 11.427 123.206 10.4095 123.284 9.7051L123.362 9.47029C129.069 10.4095 137.043 8.21802 137.043 8.21802C137.043 8.21802 138.138 19.0972 139.701 19.2537C141.187 19.4102 141.734 13.3837 141.734 13.3837C141.734 13.3837 142.516 12.601 143.376 12.3662Z" fill="url(#paint22_linear)"/>
<path d="M143.454 4.46125L143.376 12.3663C142.516 12.6011 141.656 13.3837 141.656 13.3837C141.656 13.3837 141.187 19.4886 139.623 19.2538C138.138 19.0972 136.965 8.21808 136.965 8.21808C136.965 8.21808 128.991 10.4878 123.284 9.47036C121.486 9.15729 119.923 8.53115 118.906 7.43541C114.529 2.81764 116.014 0.23482 122.346 1.64363C128.678 3.05244 141.656 -4.46122 143.454 4.46125Z" fill="#111023"/>
<path d="M138.529 28.0198L135.324 37.3336L130.398 32.6375V28.5676L138.529 28.0198Z" fill="#F79244"/>
<path d="M122.815 10.8792C124.066 10.2531 125.395 10.1748 126.724 10.6444C127.506 10.9575 126.959 12.1315 126.099 11.8184C125.239 11.5054 124.301 11.5836 123.519 11.975C122.815 12.3663 122.034 11.2706 122.815 10.8792Z" fill="#111023"/>
<path d="M135.08 15.4931C135.597 15.4661 135.984 14.8142 135.943 14.0373C135.903 13.2603 135.451 12.6524 134.933 12.6795C134.416 12.7066 134.029 13.3584 134.07 14.1354C134.11 14.9123 134.563 15.5202 135.08 15.4931Z" fill="#111023"/>
<path d="M136.652 10.5662C135.323 10.0966 133.994 10.0966 132.744 10.7227C131.962 11.1141 132.665 12.2098 133.447 11.8185C134.229 11.4271 135.167 11.4271 136.027 11.7402C136.887 12.0533 137.434 10.8793 136.652 10.5662Z" fill="#111023"/>
<path d="M127.349 18.4711C127.74 16.4361 128.835 14.4012 129.538 12.4445C129.695 12.0532 130.242 12.3662 130.164 12.7576C129.695 14.0098 129.304 15.1838 128.835 16.4361C128.678 16.8275 128.288 17.5319 128.288 18.0015C128.131 19.5668 128.835 19.4103 129.617 19.8016C130.007 19.9581 129.695 20.5843 129.304 20.4278C128.288 19.9581 127.115 19.8799 127.349 18.4711Z" fill="#F79244"/>
<path d="M126.646 14.2447C126.02 13.7751 125.317 13.3838 124.535 13.3055C124.066 13.2273 123.831 14.0099 124.3 14.0882C124.691 14.1665 125.082 14.2447 125.473 14.4013C125.082 14.5578 124.613 14.6361 124.222 14.7926C123.753 14.9492 123.91 15.7318 124.457 15.5753C125.16 15.3405 125.864 15.1057 126.489 14.8709C126.724 14.7926 126.88 14.4013 126.646 14.2447Z" fill="#111023"/>
<path d="M129.851 26.9239C130.801 26.9239 131.571 25.8026 131.571 24.4193C131.571 23.0361 130.801 21.9148 129.851 21.9148C128.901 21.9148 128.131 23.0361 128.131 24.4193C128.131 25.8026 128.901 26.9239 129.851 26.9239Z" fill="white"/>
<path opacity="0.5" d="M369.462 258.752H55.8181C55.8181 258.752 38.932 269.944 64.0266 271.901C89.1213 273.857 128.288 275.579 127.271 284.11C126.255 292.641 103.662 290.998 103.662 306.025C103.662 321.131 208.184 317.609 208.184 317.609C208.184 317.609 267.207 318.391 275.651 308.373C284.094 298.355 251.885 289.276 257.67 285.284C263.533 281.371 305.983 293.189 312.315 283.562C318.648 274.014 311.064 267.909 322.713 266.657C334.361 265.561 367.508 270.1 369.462 258.752Z" fill="url(#paint23_linear)"/>
<path d="M345.775 285.363C358.857 285.363 369.462 282.349 369.462 278.632C369.462 274.914 358.857 271.901 345.775 271.901C332.693 271.901 322.087 274.914 322.087 278.632C322.087 282.349 332.693 285.363 345.775 285.363Z" fill="url(#paint24_linear)"/>
<path d="M93.2646 289.589C104.706 289.589 113.981 287.276 113.981 284.423C113.981 281.571 104.706 279.258 93.2646 279.258C81.8231 279.258 72.5479 281.571 72.5479 284.423C72.5479 287.276 81.8231 289.589 93.2646 289.589Z" fill="url(#paint25_linear)"/>
<path d="M212.093 308.999C225.089 308.999 235.624 306.967 235.624 304.46C235.624 301.953 225.089 299.92 212.093 299.92C199.097 299.92 188.562 301.953 188.562 304.46C188.562 306.967 199.097 308.999 212.093 308.999Z" fill="#E9FDFF"/>
<path d="M243.207 198.329C238.36 187.294 229.292 180.406 216.002 177.667C214.517 177.354 213.109 177.119 211.78 176.962C200.054 175.475 190.36 178.293 182.777 185.337C174.256 193.242 168.002 207.174 163.936 227.053C161.435 239.263 160.731 249.751 161.826 258.673H190.907C190.516 253.508 191.533 244.977 193.956 233.158C196.536 220.401 199.116 211.791 201.696 207.33C203.181 204.747 204.901 203.025 206.777 202.164C208.106 201.538 209.591 201.382 211.155 201.773C214.907 202.556 217.018 205.608 217.565 210.852C218.113 216.174 217.175 225.018 214.595 237.385C212.718 246.698 210.764 253.743 208.888 258.673H240.706C242.191 254.134 243.442 249.047 244.614 243.568C245.396 239.889 245.944 236.445 246.334 233.08C248.211 218.914 247.116 207.33 243.207 198.329Z" fill="url(#paint26_linear)"/>
<path d="M235.077 196.686C230.777 186.746 222.96 180.171 211.78 176.962C210.529 176.571 209.2 176.258 207.871 176.023C194.191 173.206 183.168 175.788 174.646 183.693C166.125 191.598 159.871 205.53 155.806 225.41C154.946 229.48 154.321 233.315 153.93 236.993C152.992 245.055 152.992 252.334 153.93 258.673H182.933C182.933 258.517 182.855 258.282 182.855 258.126C182.23 253.038 183.246 244.194 185.826 231.515C188.406 218.757 190.985 210.148 193.565 205.686C196.145 201.225 199.272 199.347 202.946 200.129C204.51 200.443 205.761 201.147 206.699 202.243C208.184 203.808 209.044 206.156 209.357 209.208C209.904 214.531 208.966 223.375 206.386 235.741C204.275 246.151 202.086 253.743 199.976 258.673H231.95C233.67 253.664 235.155 248.107 236.406 241.924C240.393 222.827 239.924 207.721 235.077 196.686Z" fill="url(#paint27_linear)"/>
<path d="M257.279 122.097L257.044 122.253L236.64 138.142L223.898 148.082L213.266 177.51L210.295 176.493L221.24 146.203L255.325 119.671L257.279 122.097Z" fill="#2A2A2A"/>
<path d="M267.051 188.154C264.706 190.894 261.579 192.851 258.452 194.651L258.217 194.259C259.468 192.694 260.719 190.816 260.406 188.859C260.172 187.528 259.155 186.433 258.139 185.572C256.419 184.085 254.543 182.754 252.901 181.189C251.259 179.623 249.852 177.588 249.618 175.319C249.305 172.344 250.869 169.527 251.494 166.631C251.729 165.457 251.807 164.205 251.338 163.109C250.321 160.604 247.116 160.057 244.614 159.039C242.347 158.1 240.237 156.456 239.611 154.108C238.673 150.743 241.096 147.221 240.784 143.699C240.549 141.272 238.829 139.081 236.562 138.142L256.966 122.253C260.406 125.228 263.455 129.219 263.455 133.759C263.455 136.655 262.282 139.394 261.501 142.133C261.188 143.229 260.875 144.403 261.11 145.499C261.422 147.221 262.83 148.551 264.08 149.804C266.738 152.308 269.396 155.439 269.318 159.039C269.24 163.109 265.8 166.788 266.348 170.857C266.738 173.44 268.693 175.553 269.553 177.98C270.725 181.502 269.396 185.337 267.051 188.154Z" fill="url(#paint28_linear)"/>
</g>
<defs>
<linearGradient id="paint0_linear" x1="194.558" y1="269.715" x2="207.236" y2="78.4988" gradientUnits="userSpaceOnUse">
<stop stop-color="#8DC441"/>
<stop offset="0.3733" stop-color="#8DC441"/>
<stop offset="0.6175" stop-color="#8DC441"/>
<stop offset="0.824" stop-color="#8DC441"/>
<stop offset="1" stop-color="#8DC441"/>
</linearGradient>
<linearGradient id="paint1_linear" x1="204.799" y1="269.715" x2="217.477" y2="78.4988" gradientUnits="userSpaceOnUse">
<stop stop-color="#8DC441"/>
<stop offset="0.3733" stop-color="#8DC441"/>
<stop offset="0.6175" stop-color="#8DC441"/>
<stop offset="0.824" stop-color="#8DC441"/>
<stop offset="1" stop-color="#8DC441"/>
</linearGradient>
<linearGradient id="paint2_linear" x1="77.8377" y1="121.401" x2="77.8377" y2="88.054" gradientUnits="userSpaceOnUse">
<stop stop-color="#F9E6D9"/>
<stop offset="0.121" stop-color="#FCF1EA"/>
<stop offset="0.2698" stop-color="#FEF9F6"/>
<stop offset="0.4751" stop-color="#FFFEFD"/>
<stop offset="1" stop-color="white"/>
</linearGradient>
<linearGradient id="paint3_linear" x1="306.194" y1="144.81" x2="308.307" y2="112.307" gradientUnits="userSpaceOnUse">
<stop stop-color="#F9E6D9"/>
<stop offset="0.121" stop-color="#FCF1EA"/>
<stop offset="0.2698" stop-color="#FEF9F6"/>
<stop offset="0.4751" stop-color="#FFFEFD"/>
<stop offset="1" stop-color="white"/>
</linearGradient>
<linearGradient id="paint4_linear" x1="61.8805" y1="201.664" x2="150.325" y2="201.664" gradientUnits="userSpaceOnUse">
<stop stop-color="#31D1D6"/>
<stop offset="0.3733" stop-color="#32CED8"/>
<stop offset="0.6175" stop-color="#36C6DF"/>
<stop offset="0.824" stop-color="#3CB7EB"/>
<stop offset="1" stop-color="#45A3FA"/>
</linearGradient>
<linearGradient id="paint5_linear" x1="98.6013" y1="266.262" x2="97.7562" y2="223.206" gradientUnits="userSpaceOnUse">
<stop stop-color="#F9E6D9"/>
<stop offset="0.121" stop-color="#FCF1EA"/>
<stop offset="0.2698" stop-color="#FEF9F6"/>
<stop offset="0.4751" stop-color="#FFFEFD"/>
<stop offset="1" stop-color="white"/>
</linearGradient>
<linearGradient id="paint6_linear" x1="255.079" y1="218.498" x2="341.924" y2="201.72" gradientUnits="userSpaceOnUse">
<stop stop-color="#31D1D6"/>
<stop offset="0.3733" stop-color="#32CED8"/>
<stop offset="0.6175" stop-color="#36C6DF"/>
<stop offset="0.824" stop-color="#3CB7EB"/>
<stop offset="1" stop-color="#45A3FA"/>
</linearGradient>
<linearGradient id="paint7_linear" x1="295.608" y1="262.394" x2="294.763" y2="219.339" gradientUnits="userSpaceOnUse">
<stop stop-color="#F9E6D9"/>
<stop offset="0.121" stop-color="#FCF1EA"/>
<stop offset="0.2698" stop-color="#FEF9F6"/>
<stop offset="0.4751" stop-color="#FFFEFD"/>
<stop offset="1" stop-color="white"/>
</linearGradient>
<linearGradient id="paint8_linear" x1="118.165" y1="147.293" x2="143.185" y2="140.834" gradientUnits="userSpaceOnUse">
<stop stop-color="#31D1D6"/>
<stop offset="0.3733" stop-color="#32CED8"/>
<stop offset="0.6175" stop-color="#36C6DF"/>
<stop offset="0.824" stop-color="#3CB7EB"/>
<stop offset="1" stop-color="#45A3FA"/>
</linearGradient>
<linearGradient id="paint9_linear" x1="68.5096" y1="123.504" x2="124.202" y2="123.504" gradientUnits="userSpaceOnUse">
<stop stop-color="#31D1D6"/>
<stop offset="0.3733" stop-color="#32CED8"/>
<stop offset="0.6175" stop-color="#36C6DF"/>
<stop offset="0.824" stop-color="#3CB7EB"/>
<stop offset="1" stop-color="#45A3FA"/>
</linearGradient>
<linearGradient id="paint10_linear" x1="29.7342" y1="12.6161" x2="70.6794" y2="12.6161" gradientUnits="userSpaceOnUse">
<stop stop-color="#51ADC6"/>
<stop offset="0.0060817" stop-color="#55AFC4"/>
<stop offset="0.066315" stop-color="#74BFB5"/>
<stop offset="0.1333" stop-color="#8FCDA7"/>
<stop offset="0.2102" stop-color="#A5D89D"/>
<stop offset="0.3001" stop-color="#B6E094"/>
<stop offset="0.4112" stop-color="#C1E78E"/>
<stop offset="0.5672" stop-color="#C8EA8B"/>
<stop offset="1" stop-color="#CAEB8A"/>
</linearGradient>
<linearGradient id="paint11_linear" x1="32.0108" y1="7.87755" x2="25.3851" y2="7.87755" gradientUnits="userSpaceOnUse">
<stop stop-color="#8AEBD6"/>
<stop offset="0.4615" stop-color="#89E9D7"/>
<stop offset="0.6276" stop-color="#84E2DA"/>
<stop offset="0.7461" stop-color="#7DD7DE"/>
<stop offset="0.8419" stop-color="#72C6E5"/>
<stop offset="0.9229" stop-color="#64B0EE"/>
<stop offset="0.9944" stop-color="#5395F9"/>
<stop offset="1" stop-color="#5193FA"/>
</linearGradient>
<linearGradient id="paint12_linear" x1="33.2231" y1="11.8469" x2="25.3498" y2="11.8469" gradientUnits="userSpaceOnUse">
<stop stop-color="#31D1D6"/>
<stop offset="0.3733" stop-color="#32CED8"/>
<stop offset="0.6175" stop-color="#36C6DF"/>
<stop offset="0.824" stop-color="#3CB7EB"/>
<stop offset="1" stop-color="#45A3FA"/>
</linearGradient>
<linearGradient id="paint13_linear" x1="33.2373" y1="16.4232" x2="25.9984" y2="16.4232" gradientUnits="userSpaceOnUse">
<stop stop-color="#8AEBD6"/>
<stop offset="0.4615" stop-color="#89E9D7"/>
<stop offset="0.6276" stop-color="#84E2DA"/>
<stop offset="0.7461" stop-color="#7DD7DE"/>
<stop offset="0.8419" stop-color="#72C6E5"/>
<stop offset="0.9229" stop-color="#64B0EE"/>
<stop offset="0.9944" stop-color="#5395F9"/>
<stop offset="1" stop-color="#5193FA"/>
</linearGradient>
<linearGradient id="paint14_linear" x1="70.6792" y1="12.2174" x2="94.7572" y2="12.2174" gradientUnits="userSpaceOnUse">
<stop stop-color="#31D1D6"/>
<stop offset="0.3733" stop-color="#32CED8"/>
<stop offset="0.6175" stop-color="#36C6DF"/>
<stop offset="0.824" stop-color="#3CB7EB"/>
<stop offset="1" stop-color="#45A3FA"/>
</linearGradient>
<linearGradient id="paint15_linear" x1="60.148" y1="19.7581" x2="71.6308" y2="19.7581" gradientUnits="userSpaceOnUse">
<stop stop-color="#F7BE86"/>
<stop offset="0.3293" stop-color="#F7BC83"/>
<stop offset="0.5448" stop-color="#F7B67B"/>
<stop offset="0.7276" stop-color="#F7AC6C"/>
<stop offset="0.8912" stop-color="#F79E57"/>
<stop offset="1" stop-color="#F79244"/>
</linearGradient>
<linearGradient id="paint16_linear" x1="127.97" y1="28.5453" x2="127.589" y2="42.3733" gradientUnits="userSpaceOnUse">
<stop stop-color="#7B6ED6"/>
<stop offset="0.4804" stop-color="#796DD5"/>
<stop offset="0.6535" stop-color="#7268D0"/>
<stop offset="0.7768" stop-color="#6760C9"/>
<stop offset="0.8765" stop-color="#5655BE"/>
<stop offset="0.961" stop-color="#4047B0"/>
<stop offset="1" stop-color="#333EA8"/>
</linearGradient>
<linearGradient id="paint17_linear" x1="137.279" y1="28.7271" x2="136.263" y2="60.8235" gradientUnits="userSpaceOnUse">
<stop stop-color="#7B6ED6"/>
<stop offset="0.4804" stop-color="#796DD5"/>
<stop offset="0.6535" stop-color="#7268D0"/>
<stop offset="0.7768" stop-color="#6760C9"/>
<stop offset="0.8765" stop-color="#5655BE"/>
<stop offset="0.961" stop-color="#4047B0"/>
<stop offset="1" stop-color="#333EA8"/>
</linearGradient>
<linearGradient id="paint18_linear" x1="145.731" y1="29.0345" x2="145.35" y2="42.8626" gradientUnits="userSpaceOnUse">
<stop stop-color="#7B6ED6"/>
<stop offset="0.4804" stop-color="#796DD5"/>
<stop offset="0.6535" stop-color="#7268D0"/>
<stop offset="0.7768" stop-color="#6760C9"/>
<stop offset="0.8765" stop-color="#5655BE"/>
<stop offset="0.961" stop-color="#4047B0"/>
<stop offset="1" stop-color="#333EA8"/>
</linearGradient>
<linearGradient id="paint19_linear" x1="64.0254" y1="58.1843" x2="156.277" y2="58.1843" gradientUnits="userSpaceOnUse">
<stop stop-color="#7B6ED6"/>
<stop offset="0.4804" stop-color="#796DD5"/>
<stop offset="0.6535" stop-color="#7268D0"/>
<stop offset="0.7768" stop-color="#6760C9"/>
<stop offset="0.8765" stop-color="#5655BE"/>
<stop offset="0.961" stop-color="#4047B0"/>
<stop offset="1" stop-color="#333EA8"/>
</linearGradient>
<linearGradient id="paint20_linear" x1="103.967" y1="19.1928" x2="120.661" y2="19.1928" gradientUnits="userSpaceOnUse">
<stop stop-color="#F7BE86"/>
<stop offset="0.3293" stop-color="#F7BC83"/>
<stop offset="0.5448" stop-color="#F7B67B"/>
<stop offset="0.7276" stop-color="#F7AC6C"/>
<stop offset="0.8912" stop-color="#F79E57"/>
<stop offset="1" stop-color="#F79244"/>
</linearGradient>
<linearGradient id="paint21_linear" x1="112.879" y1="51.6189" x2="156.277" y2="51.6189" gradientUnits="userSpaceOnUse">
<stop stop-color="#3C0887"/>
<stop offset="0.3227" stop-color="#3F0987"/>
<stop offset="0.5338" stop-color="#470E87"/>
<stop offset="0.7129" stop-color="#561588"/>
<stop offset="0.8732" stop-color="#6B1F89"/>
<stop offset="1" stop-color="#822A8A"/>
</linearGradient>
<linearGradient id="paint22_linear" x1="123.156" y1="22.7566" x2="145.092" y2="22.7566" gradientUnits="userSpaceOnUse">
<stop stop-color="#F7BE86"/>
<stop offset="0.3293" stop-color="#F7BC83"/>
<stop offset="0.5448" stop-color="#F7B67B"/>
<stop offset="0.7276" stop-color="#F7AC6C"/>
<stop offset="0.8912" stop-color="#F79E57"/>
<stop offset="1" stop-color="#F79244"/>
</linearGradient>
<linearGradient id="paint23_linear" x1="208.349" y1="320.906" x2="209.476" y2="269.41" gradientUnits="userSpaceOnUse">
<stop stop-color="#8DC441"/>
<stop offset="0.3733" stop-color="#8DC441"/>
<stop offset="0.6175" stop-color="#8DC441"/>
<stop offset="0.824" stop-color="#8DC441"/>
<stop offset="1" stop-color="#8DC441"/>
</linearGradient>
<linearGradient id="paint24_linear" x1="345.55" y1="286.031" x2="345.943" y2="274.331" gradientUnits="userSpaceOnUse">
<stop stop-color="#8DC441"/>
<stop offset="0.3733" stop-color="#8DC441"/>
<stop offset="0.6175" stop-color="#8DC441"/>
<stop offset="0.824" stop-color="#8DC441"/>
<stop offset="1" stop-color="#8DC441"/>
</linearGradient>
<linearGradient id="paint25_linear" x1="93.0683" y1="290.102" x2="93.3326" y2="281.121" gradientUnits="userSpaceOnUse">
<stop stop-color="#8DC441"/>
<stop offset="0.3733" stop-color="#8DC441"/>
<stop offset="0.6175" stop-color="#8DC441"/>
<stop offset="0.824" stop-color="#8DC441"/>
<stop offset="1" stop-color="#8DC441"/>
</linearGradient>
<linearGradient id="paint26_linear" x1="166.669" y1="213.644" x2="247.366" y2="230.115" gradientUnits="userSpaceOnUse">
<stop stop-color="#31D1D6"/>
<stop offset="0.3733" stop-color="#32CED8"/>
<stop offset="0.6175" stop-color="#36C6DF"/>
<stop offset="0.824" stop-color="#3CB7EB"/>
<stop offset="1" stop-color="#45A3FA"/>
</linearGradient>
<linearGradient id="paint27_linear" x1="196.746" y1="264.335" x2="195.901" y2="221.279" gradientUnits="userSpaceOnUse">
<stop stop-color="#F9E6D9"/>
<stop offset="0.121" stop-color="#FCF1EA"/>
<stop offset="0.2698" stop-color="#FEF9F6"/>
<stop offset="0.4751" stop-color="#FFFEFD"/>
<stop offset="1" stop-color="white"/>
</linearGradient>
<linearGradient id="paint28_linear" x1="236.645" y1="158.436" x2="270.028" y2="158.436" gradientUnits="userSpaceOnUse">
<stop stop-color="#7B6ED6"/>
<stop offset="0.4804" stop-color="#796DD5"/>
<stop offset="0.6535" stop-color="#7268D0"/>
<stop offset="0.7768" stop-color="#6760C9"/>
<stop offset="0.8765" stop-color="#5655BE"/>
<stop offset="0.961" stop-color="#4047B0"/>
<stop offset="1" stop-color="#333EA8"/>
</linearGradient>
<clipPath id="clip0">
<rect width="403" height="318" fill="white"/>
</clipPath>
</defs>
</svg>
