<svg width="1280" height="572" viewBox="0 0 1280 572" fill="none" xmlns="http://www.w3.org/2000/svg">
<path d="M472.902 82.2128C472.902 120.599 443.013 151.682 406.185 151.682C369.358 151.682 339.469 120.599 339.469 82.2128C339.469 43.8267 369.358 12.7432 406.185 12.7432C443.013 12.7432 472.902 43.8267 472.902 82.2128Z" stroke="#8DC441" stroke-opacity="0.7"/>
<path d="M876.201 82.2128C876.201 120.599 846.312 151.682 809.485 151.682C772.657 151.682 742.768 120.599 742.768 82.2128C742.768 43.8267 772.657 12.7432 809.485 12.7432C846.312 12.7432 876.201 43.8267 876.201 82.2128Z" stroke="#8DC441" stroke-opacity="0.7"/>
<path d="M1279.5 82.2128C1279.5 120.599 1249.61 151.682 1212.78 151.682C1175.96 151.682 1146.07 120.599 1146.07 82.2128C1146.07 43.8267 1175.96 12.7432 1212.78 12.7432C1249.61 12.7432 1279.5 43.8267 1279.5 82.2128Z" stroke="#8DC441" stroke-opacity="0.7"/>
<path d="M472.902 222.152C472.902 260.538 443.013 291.622 406.185 291.622C369.358 291.622 339.469 260.538 339.469 222.152C339.469 183.766 369.358 152.682 406.185 152.682C443.013 152.682 472.902 183.766 472.902 222.152Z" stroke="#8DC441" stroke-opacity="0.7"/>
<path d="M876.201 222.152C876.201 260.538 846.312 291.622 809.485 291.622C772.657 291.622 742.768 260.538 742.768 222.152C742.768 183.766 772.657 152.682 809.485 152.682C846.312 152.682 876.201 183.766 876.201 222.152Z" stroke="#8DC441" stroke-opacity="0.7"/>
<path d="M1279.5 222.152C1279.5 260.538 1249.61 291.622 1212.78 291.622C1175.96 291.622 1146.07 260.538 1146.07 222.152C1146.07 183.766 1175.96 152.683 1212.78 152.683C1249.61 152.683 1279.5 183.766 1279.5 222.152Z" stroke="#8DC441" stroke-opacity="0.7"/>
<path d="M472.902 362.091C472.902 400.477 443.013 431.561 406.185 431.561C369.358 431.561 339.469 400.477 339.469 362.091C339.469 323.705 369.358 292.622 406.185 292.622C443.013 292.622 472.902 323.705 472.902 362.091Z" stroke="#8DC441" stroke-opacity="0.7"/>
<path d="M472.902 502.03C472.902 540.417 443.013 571.5 406.185 571.5C369.358 571.5 339.469 540.417 339.469 502.03C339.469 463.644 369.358 432.561 406.185 432.561C443.013 432.561 472.902 463.644 472.902 502.03Z" stroke="#8DC441" stroke-opacity="0.7"/>
<path d="M876.201 362.091C876.201 400.477 846.312 431.561 809.485 431.561C772.657 431.561 742.768 400.477 742.768 362.091C742.768 323.705 772.657 292.622 809.485 292.622C846.312 292.622 876.201 323.705 876.201 362.091Z" stroke="#8DC441" stroke-opacity="0.7"/>
<path d="M876.201 502.03C876.201 540.417 846.312 571.5 809.485 571.5C772.657 571.5 742.768 540.417 742.768 502.03C742.768 463.644 772.657 432.561 809.485 432.561C846.312 432.561 876.201 463.644 876.201 502.03Z" stroke="#8DC441" stroke-opacity="0.7"/>
<path d="M1279.5 362.091C1279.5 400.477 1249.61 431.561 1212.78 431.561C1175.96 431.561 1146.07 400.477 1146.07 362.091C1146.07 323.705 1175.96 292.622 1212.78 292.622C1249.61 292.622 1279.5 323.705 1279.5 362.091Z" stroke="#8DC441" stroke-opacity="0.7"/>
<path d="M1279.5 502.03C1279.5 540.417 1249.61 571.5 1212.78 571.5C1175.96 571.5 1146.07 540.417 1146.07 502.03C1146.07 463.644 1175.96 432.561 1212.78 432.561C1249.61 432.561 1279.5 463.644 1279.5 502.03Z" stroke="#8DC441" stroke-opacity="0.7"/>
<path d="M405.686 82.2128C405.686 120.599 375.797 151.682 338.969 151.682C302.142 151.682 272.253 120.599 272.253 82.2128C272.253 43.8267 302.142 12.7432 338.969 12.7432C375.797 12.7432 405.686 43.8267 405.686 82.2128Z" stroke="#8DC441" stroke-opacity="0.7"/>
<path d="M808.985 82.2128C808.985 120.599 779.096 151.682 742.268 151.682C705.44 151.682 675.552 120.599 675.552 82.2128C675.552 43.8267 705.44 12.7432 742.268 12.7432C779.096 12.7432 808.985 43.8267 808.985 82.2128Z" stroke="#8DC441" stroke-opacity="0.7"/>
<path d="M1212.28 82.2128C1212.28 120.599 1182.39 151.682 1145.57 151.682C1108.74 151.682 1078.85 120.599 1078.85 82.2128C1078.85 43.8267 1108.74 12.7432 1145.57 12.7432C1182.39 12.7432 1212.28 43.8267 1212.28 82.2128Z" stroke="#8DC441" stroke-opacity="0.7"/>
<path d="M405.686 222.152C405.686 260.538 375.797 291.622 338.969 291.622C302.142 291.622 272.253 260.538 272.253 222.152C272.253 183.766 302.142 152.682 338.969 152.682C375.797 152.682 405.686 183.766 405.686 222.152Z" stroke="#8DC441" stroke-opacity="0.7"/>
<path d="M808.985 222.152C808.985 260.538 779.096 291.622 742.268 291.622C705.44 291.622 675.552 260.538 675.552 222.152C675.552 183.766 705.44 152.682 742.268 152.682C779.096 152.682 808.985 183.766 808.985 222.152Z" stroke="#8DC441" stroke-opacity="0.7"/>
<path d="M1212.28 222.152C1212.28 260.538 1182.39 291.622 1145.57 291.622C1108.74 291.622 1078.85 260.538 1078.85 222.152C1078.85 183.766 1108.74 152.683 1145.57 152.683C1182.39 152.683 1212.28 183.766 1212.28 222.152Z" stroke="#8DC441" stroke-opacity="0.7"/>
<path d="M405.686 362.091C405.686 400.477 375.797 431.561 338.969 431.561C302.142 431.561 272.253 400.477 272.253 362.091C272.253 323.705 302.142 292.622 338.969 292.622C375.797 292.622 405.686 323.705 405.686 362.091Z" stroke="#8DC441" stroke-opacity="0.7"/>
<path d="M405.686 502.03C405.686 540.417 375.797 571.5 338.969 571.5C302.142 571.5 272.253 540.417 272.253 502.03C272.253 463.644 302.142 432.561 338.969 432.561C375.797 432.561 405.686 463.644 405.686 502.03Z" stroke="#8DC441" stroke-opacity="0.7"/>
<path d="M808.985 362.091C808.985 400.477 779.096 431.561 742.268 431.561C705.44 431.561 675.552 400.477 675.552 362.091C675.552 323.705 705.44 292.622 742.268 292.622C779.096 292.622 808.985 323.705 808.985 362.091Z" stroke="#8DC441" stroke-opacity="0.7"/>
<path d="M808.985 502.03C808.985 540.417 779.096 571.5 742.268 571.5C705.44 571.5 675.552 540.417 675.552 502.03C675.552 463.644 705.44 432.561 742.268 432.561C779.096 432.561 808.985 463.644 808.985 502.03Z" stroke="#8DC441" stroke-opacity="0.7"/>
<path d="M1212.28 362.091C1212.28 400.477 1182.39 431.561 1145.57 431.561C1108.74 431.561 1078.85 400.477 1078.85 362.091C1078.85 323.705 1108.74 292.622 1145.57 292.622C1182.39 292.622 1212.28 323.705 1212.28 362.091Z" stroke="#8DC441" stroke-opacity="0.7"/>
<path d="M1212.28 502.03C1212.28 540.417 1182.39 571.5 1145.57 571.5C1108.74 571.5 1078.85 540.417 1078.85 502.03C1078.85 463.644 1108.74 432.561 1145.57 432.561C1182.39 432.561 1212.28 463.644 1212.28 502.03Z" stroke="#8DC441" stroke-opacity="0.7"/>
<path d="M338.469 82.2128C338.469 120.599 308.58 151.682 271.753 151.682C234.925 151.682 205.036 120.599 205.036 82.2128C205.036 43.8267 234.925 12.7432 271.753 12.7432C308.58 12.7432 338.469 43.8267 338.469 82.2128Z" stroke="#8DC441" stroke-opacity="0.7"/>
<path d="M741.768 82.2128C741.768 120.599 711.879 151.682 675.051 151.682C638.223 151.682 608.335 120.599 608.335 82.2128C608.335 43.8267 638.223 12.7432 675.051 12.7432C711.879 12.7432 741.768 43.8267 741.768 82.2128Z" stroke="#8DC441" stroke-opacity="0.7"/>
<path d="M1145.07 82.2128C1145.07 120.599 1115.18 151.682 1078.35 151.682C1041.52 151.682 1011.63 120.599 1011.63 82.2128C1011.63 43.8267 1041.52 12.7432 1078.35 12.7432C1115.18 12.7432 1145.07 43.8267 1145.07 82.2128Z" stroke="#8DC441" stroke-opacity="0.7"/>
<path d="M338.469 222.152C338.469 260.538 308.58 291.622 271.753 291.622C234.925 291.622 205.036 260.538 205.036 222.152C205.036 183.766 234.925 152.682 271.753 152.682C308.58 152.682 338.469 183.766 338.469 222.152Z" stroke="#8DC441" stroke-opacity="0.7"/>
<path d="M741.768 222.152C741.768 260.538 711.879 291.622 675.051 291.622C638.223 291.622 608.335 260.538 608.335 222.152C608.335 183.766 638.223 152.682 675.051 152.682C711.879 152.682 741.768 183.766 741.768 222.152Z" stroke="#8DC441" stroke-opacity="0.7"/>
<path d="M1145.07 222.152C1145.07 260.538 1115.18 291.622 1078.35 291.622C1041.52 291.622 1011.63 260.538 1011.63 222.152C1011.63 183.766 1041.52 152.683 1078.35 152.683C1115.18 152.683 1145.07 183.766 1145.07 222.152Z" stroke="#8DC441" stroke-opacity="0.7"/>
<path d="M338.469 362.091C338.469 400.477 308.58 431.561 271.753 431.561C234.925 431.561 205.036 400.477 205.036 362.091C205.036 323.705 234.925 292.622 271.753 292.622C308.58 292.622 338.469 323.705 338.469 362.091Z" stroke="#8DC441" stroke-opacity="0.7"/>
<path d="M338.469 502.03C338.469 540.417 308.58 571.5 271.753 571.5C234.925 571.5 205.036 540.417 205.036 502.03C205.036 463.644 234.925 432.561 271.753 432.561C308.58 432.561 338.469 463.644 338.469 502.03Z" stroke="#8DC441" stroke-opacity="0.7"/>
<path d="M741.768 362.091C741.768 400.477 711.879 431.561 675.051 431.561C638.223 431.561 608.335 400.477 608.335 362.091C608.335 323.705 638.223 292.622 675.051 292.622C711.879 292.622 741.768 323.705 741.768 362.091Z" stroke="#8DC441" stroke-opacity="0.7"/>
<path d="M741.768 502.03C741.768 540.417 711.879 571.5 675.051 571.5C638.223 571.5 608.335 540.417 608.335 502.03C608.335 463.644 638.223 432.561 675.051 432.561C711.879 432.561 741.768 463.644 741.768 502.03Z" stroke="#8DC441" stroke-opacity="0.7"/>
<path d="M1145.07 362.091C1145.07 400.477 1115.18 431.561 1078.35 431.561C1041.52 431.561 1011.63 400.477 1011.63 362.091C1011.63 323.705 1041.52 292.622 1078.35 292.622C1115.18 292.622 1145.07 323.705 1145.07 362.091Z" stroke="#8DC441" stroke-opacity="0.7"/>
<path d="M1145.07 502.03C1145.07 540.417 1115.18 571.5 1078.35 571.5C1041.52 571.5 1011.63 540.417 1011.63 502.03C1011.63 463.644 1041.52 432.561 1078.35 432.561C1115.18 432.561 1145.07 463.644 1145.07 502.03Z" stroke="#8DC441" stroke-opacity="0.7"/>
<path d="M271.253 82.2128C271.253 120.599 241.364 151.682 204.536 151.682C167.709 151.682 137.82 120.599 137.82 82.2128C137.82 43.8267 167.709 12.7432 204.536 12.7432C241.364 12.7432 271.253 43.8267 271.253 82.2128Z" stroke="#8DC441" stroke-opacity="0.7"/>
<path d="M674.552 82.2128C674.552 120.599 644.663 151.682 607.835 151.682C571.007 151.682 541.119 120.599 541.119 82.2128C541.119 43.8267 571.007 12.7432 607.835 12.7432C644.663 12.7432 674.552 43.8267 674.552 82.2128Z" stroke="#8DC441" stroke-opacity="0.7"/>
<path d="M1077.85 82.2128C1077.85 120.599 1047.96 151.682 1011.13 151.682C974.306 151.682 944.417 120.599 944.417 82.2128C944.417 43.8267 974.306 12.7432 1011.13 12.7432C1047.96 12.7432 1077.85 43.8267 1077.85 82.2128Z" stroke="#8DC441" stroke-opacity="0.7"/>
<path d="M271.253 222.152C271.253 260.538 241.364 291.622 204.536 291.622C167.709 291.622 137.82 260.538 137.82 222.152C137.82 183.766 167.709 152.682 204.536 152.682C241.364 152.682 271.253 183.766 271.253 222.152Z" stroke="#8DC441" stroke-opacity="0.7"/>
<path d="M674.552 222.152C674.552 260.538 644.663 291.622 607.835 291.622C571.007 291.622 541.119 260.538 541.119 222.152C541.119 183.766 571.007 152.682 607.835 152.682C644.663 152.682 674.552 183.766 674.552 222.152Z" stroke="#8DC441" stroke-opacity="0.7"/>
<path d="M1077.85 222.152C1077.85 260.538 1047.96 291.622 1011.13 291.622C974.306 291.622 944.417 260.538 944.417 222.152C944.417 183.766 974.306 152.683 1011.13 152.683C1047.96 152.683 1077.85 183.766 1077.85 222.152Z" stroke="#8DC441" stroke-opacity="0.7"/>
<path d="M271.253 362.091C271.253 400.477 241.364 431.561 204.536 431.561C167.709 431.561 137.82 400.477 137.82 362.091C137.82 323.705 167.709 292.622 204.536 292.622C241.364 292.622 271.253 323.705 271.253 362.091Z" stroke="#8DC441" stroke-opacity="0.7"/>
<path d="M271.253 502.03C271.253 540.417 241.364 571.5 204.536 571.5C167.709 571.5 137.82 540.417 137.82 502.03C137.82 463.644 167.709 432.561 204.536 432.561C241.364 432.561 271.253 463.644 271.253 502.03Z" stroke="#8DC441" stroke-opacity="0.7"/>
<path d="M674.552 362.091C674.552 400.477 644.663 431.561 607.835 431.561C571.007 431.561 541.119 400.477 541.119 362.091C541.119 323.705 571.007 292.622 607.835 292.622C644.663 292.622 674.552 323.705 674.552 362.091Z" stroke="#8DC441" stroke-opacity="0.7"/>
<path d="M674.552 502.03C674.552 540.417 644.663 571.5 607.835 571.5C571.007 571.5 541.119 540.417 541.119 502.03C541.119 463.644 571.007 432.561 607.835 432.561C644.663 432.561 674.552 463.644 674.552 502.03Z" stroke="#8DC441" stroke-opacity="0.7"/>
<path d="M1077.85 362.091C1077.85 400.477 1047.96 431.561 1011.13 431.561C974.306 431.561 944.417 400.477 944.417 362.091C944.417 323.705 974.306 292.622 1011.13 292.622C1047.96 292.622 1077.85 323.705 1077.85 362.091Z" stroke="#8DC441" stroke-opacity="0.7"/>
<path d="M1077.85 502.03C1077.85 540.417 1047.96 571.5 1011.13 571.5C974.306 571.5 944.417 540.417 944.417 502.03C944.417 463.644 974.306 432.561 1011.13 432.561C1047.96 432.561 1077.85 463.644 1077.85 502.03Z" stroke="#8DC441" stroke-opacity="0.7"/>
<path d="M204.036 82.2128C204.036 120.599 174.148 151.682 137.32 151.682C100.492 151.682 70.6033 120.599 70.6033 82.2128C70.6033 43.8267 100.492 12.7432 137.32 12.7432C174.148 12.7432 204.036 43.8267 204.036 82.2128Z" stroke="#8DC441" stroke-opacity="0.7"/>
<path d="M607.335 82.2128C607.335 120.599 577.447 151.682 540.619 151.682C503.791 151.682 473.902 120.599 473.902 82.2128C473.902 43.8267 503.791 12.7432 540.619 12.7432C577.447 12.7432 607.335 43.8267 607.335 82.2128Z" stroke="#8DC441" stroke-opacity="0.7"/>
<path d="M1010.63 82.2128C1010.63 120.599 980.746 151.682 943.918 151.682C907.09 151.682 877.201 120.599 877.201 82.2128C877.201 43.8267 907.09 12.7432 943.918 12.7432C980.746 12.7432 1010.63 43.8267 1010.63 82.2128Z" stroke="#8DC441" stroke-opacity="0.7"/>
<path d="M204.036 222.152C204.036 260.538 174.148 291.622 137.32 291.622C100.492 291.622 70.6033 260.538 70.6033 222.152C70.6033 183.766 100.492 152.682 137.32 152.682C174.148 152.682 204.036 183.766 204.036 222.152Z" stroke="#8DC441" stroke-opacity="0.7"/>
<path d="M607.335 222.152C607.335 260.538 577.447 291.622 540.619 291.622C503.791 291.622 473.902 260.538 473.902 222.152C473.902 183.766 503.791 152.682 540.619 152.682C577.447 152.682 607.335 183.766 607.335 222.152Z" stroke="#8DC441" stroke-opacity="0.7"/>
<path d="M1010.63 222.152C1010.63 260.538 980.746 291.622 943.918 291.622C907.09 291.622 877.201 260.538 877.201 222.152C877.201 183.766 907.09 152.682 943.918 152.682C980.746 152.682 1010.63 183.766 1010.63 222.152Z" stroke="#8DC441" stroke-opacity="0.7"/>
<path d="M204.036 362.091C204.036 400.477 174.148 431.561 137.32 431.561C100.492 431.561 70.6033 400.477 70.6033 362.091C70.6033 323.705 100.492 292.622 137.32 292.622C174.148 292.622 204.036 323.705 204.036 362.091Z" stroke="#8DC441" stroke-opacity="0.7"/>
<path d="M204.036 502.03C204.036 540.417 174.148 571.5 137.32 571.5C100.492 571.5 70.6033 540.417 70.6033 502.03C70.6033 463.644 100.492 432.561 137.32 432.561C174.148 432.561 204.036 463.644 204.036 502.03Z" stroke="#8DC441" stroke-opacity="0.7"/>
<path d="M607.335 362.091C607.335 400.477 577.447 431.561 540.619 431.561C503.791 431.561 473.902 400.477 473.902 362.091C473.902 323.705 503.791 292.622 540.619 292.622C577.447 292.622 607.335 323.705 607.335 362.091Z" stroke="#8DC441" stroke-opacity="0.7"/>
<path d="M607.335 502.03C607.335 540.417 577.447 571.5 540.619 571.5C503.791 571.5 473.902 540.417 473.902 502.03C473.902 463.644 503.791 432.561 540.619 432.561C577.447 432.561 607.335 463.644 607.335 502.03Z" stroke="#8DC441" stroke-opacity="0.7"/>
<path d="M1010.63 362.091C1010.63 400.477 980.746 431.561 943.918 431.561C907.09 431.561 877.201 400.477 877.201 362.091C877.201 323.705 907.09 292.622 943.918 292.622C980.746 292.622 1010.63 323.705 1010.63 362.091Z" stroke="#8DC441" stroke-opacity="0.7"/>
<path d="M1010.63 502.03C1010.63 540.417 980.746 571.5 943.918 571.5C907.09 571.5 877.201 540.417 877.201 502.03C877.201 463.644 907.09 432.561 943.918 432.561C980.746 432.561 1010.63 463.644 1010.63 502.03Z" stroke="#8DC441" stroke-opacity="0.7"/>
<path d="M136.82 82.2128C136.82 120.599 106.931 151.682 70.1034 151.682C33.2757 151.682 3.38696 120.599 3.38696 82.2128C3.38696 43.8267 33.2757 12.7432 70.1034 12.7432C106.931 12.7432 136.82 43.8267 136.82 82.2128Z" stroke="#8DC441" stroke-opacity="0.7"/>
<path d="M540.119 82.2128C540.119 120.599 510.23 151.682 473.402 151.682C436.574 151.682 406.686 120.599 406.686 82.2128C406.686 43.8267 436.574 12.7432 473.402 12.7432C510.23 12.7432 540.119 43.8267 540.119 82.2128Z" stroke="#8DC441" stroke-opacity="0.7"/>
<path d="M943.417 82.2128C943.417 120.599 913.529 151.682 876.701 151.682C839.873 151.682 809.984 120.599 809.984 82.2128C809.984 43.8267 839.873 12.7432 876.701 12.7432C913.529 12.7432 943.417 43.8267 943.417 82.2128Z" stroke="#8DC441" stroke-opacity="0.7"/>
<path d="M136.82 222.152C136.82 260.538 106.931 291.622 70.1034 291.622C33.2757 291.622 3.38696 260.538 3.38696 222.152C3.38696 183.766 33.2757 152.682 70.1034 152.682C106.931 152.682 136.82 183.766 136.82 222.152Z" stroke="#8DC441" stroke-opacity="0.7"/>
<path d="M540.119 222.152C540.119 260.538 510.23 291.622 473.402 291.622C436.574 291.622 406.686 260.538 406.686 222.152C406.686 183.766 436.574 152.682 473.402 152.682C510.23 152.682 540.119 183.766 540.119 222.152Z" stroke="#8DC441" stroke-opacity="0.7"/>
<path d="M943.417 222.152C943.417 260.538 913.529 291.622 876.701 291.622C839.873 291.622 809.984 260.538 809.984 222.152C809.984 183.766 839.873 152.682 876.701 152.682C913.529 152.682 943.417 183.766 943.417 222.152Z" stroke="#8DC441" stroke-opacity="0.7"/>
<path d="M136.82 362.091C136.82 400.477 106.931 431.561 70.1034 431.561C33.2757 431.561 3.38696 400.477 3.38696 362.091C3.38696 323.705 33.2757 292.622 70.1034 292.622C106.931 292.622 136.82 323.705 136.82 362.091Z" stroke="#8DC441" stroke-opacity="0.7"/>
<path d="M136.82 502.03C136.82 540.417 106.931 571.5 70.1034 571.5C33.2757 571.5 3.38696 540.417 3.38696 502.03C3.38696 463.644 33.2757 432.561 70.1034 432.561C106.931 432.561 136.82 463.644 136.82 502.03Z" stroke="#8DC441" stroke-opacity="0.7"/>
<path d="M540.119 362.091C540.119 400.477 510.23 431.561 473.402 431.561C436.574 431.561 406.686 400.477 406.686 362.091C406.686 323.705 436.574 292.622 473.402 292.622C510.23 292.622 540.119 323.705 540.119 362.091Z" stroke="#8DC441" stroke-opacity="0.7"/>
<path d="M540.119 502.03C540.119 540.417 510.23 571.5 473.402 571.5C436.574 571.5 406.686 540.417 406.686 502.03C406.686 463.644 436.574 432.561 473.402 432.561C510.23 432.561 540.119 463.644 540.119 502.03Z" stroke="#8DC441" stroke-opacity="0.7"/>
<path d="M943.417 362.091C943.417 400.477 913.529 431.561 876.701 431.561C839.873 431.561 809.984 400.477 809.984 362.091C809.984 323.705 839.873 292.622 876.701 292.622C913.529 292.622 943.417 323.705 943.417 362.091Z" stroke="#8DC441" stroke-opacity="0.7"/>
<path d="M943.417 502.03C943.417 540.417 913.529 571.5 876.701 571.5C839.873 571.5 809.984 540.417 809.984 502.03C809.984 463.644 839.873 432.561 876.701 432.561C913.529 432.561 943.417 463.644 943.417 502.03Z" stroke="#8DC441" stroke-opacity="0.7"/>
<line y1="85.7109" x2="1229.1" y2="85.7109" stroke="#8DC441" stroke-opacity="0.7"/>
<line y1="215.655" x2="1229.1" y2="215.655" stroke="#8DC441" stroke-opacity="0.7"/>
<line y1="345.598" x2="1229.1" y2="345.598" stroke="#8DC441" stroke-opacity="0.7"/>
<line y1="485.537" x2="1229.1" y2="485.537" stroke="#8DC441" stroke-opacity="0.7"/>
<rect y="0.5" width="1280" height="571.5" fill="url(#paint0_linear)"/>
<defs>
<linearGradient id="paint0_linear" x1="11" y1="465.822" x2="667.293" y2="298.161" gradientUnits="userSpaceOnUse">
<stop offset="0.151519" stop-color="white"/>
<stop offset="0.953885" stop-color="white" stop-opacity="0"/>
</linearGradient>
</defs>
</svg>
