<?xml version="1.0" encoding="UTF-8"?>
<svg width="12px" height="12px" viewBox="0 0 12 12" version="1.1" xmlns="http://www.w3.org/2000/svg" xmlns:xlink="http://www.w3.org/1999/xlink">
    <!-- Generator: Sketch 49.3 (51167) - http://www.bohemiancoding.com/sketch -->
    <title>Combined Shape</title>
    <desc>Created with Sketch.</desc>
    <defs></defs>
    <g id="Page-1" stroke="none" stroke-width="1" fill="none" fill-rule="evenodd">
        <g id="Omni-bar---states-Copy-2" transform="translate(-376.000000, -214.000000)" fill="#777777">
            <g id="Sidebar" transform="translate(-10.000000, -10.000000)">
                <g id="Freshdesk" transform="translate(31.000000, 210.000000)">
                    <path d="M360.1,19.1 L360.1,14.9 C360.1,14.4029437 360.502944,14 361,14 C361.497056,14 361.9,14.4029437 361.9,14.9 L361.9,19.1 L366.1,19.1 C366.597056,19.1 367,19.5029437 367,20 C367,20.4970563 366.597056,20.9 366.1,20.9 L361.9,20.9 L361.9,25.1 C361.9,25.5970563 361.497056,26 361,26 C360.502944,26 360.1,25.5970563 360.1,25.1 L360.1,20.9 L355.9,20.9 C355.402944,20.9 355,20.4970563 355,20 C355,19.5029437 355.402944,19.1 355.9,19.1 L360.1,19.1 Z" id="Combined-Shape"></path>
                </g>
            </g>
        </g>
    </g>
</svg>