<svg width="12" height="12" viewBox="0 0 12 12" fill="none" xmlns="http://www.w3.org/2000/svg">
<path fill-rule="evenodd" clip-rule="evenodd" d="M9 4.14621V3C9 1.34316 7.65684 0 6 0C4.34316 0 3 1.34316 3 3V4.14623C2.07949 4.9702 1.5 6.16737 1.5 7.5C1.5 9.98529 3.51473 12 6 12C8.48529 12 10.5 9.98529 10.5 7.5C10.5 6.16737 9.92051 4.9702 9 4.14621ZM3.75 3C3.75 1.75934 4.75934 0.75 6 0.75C7.24066 0.75 8.25 1.75934 8.25 3V3.60216C7.5881 3.21926 6.81968 3 6 3C5.18032 3 4.4119 3.21926 3.75 3.60218V3ZM6 11.25C3.92892 11.25 2.25 9.57108 2.25 7.5C2.25 5.42892 3.92892 3.75 6 3.75C8.07108 3.75 9.75 5.42892 9.75 7.5C9.75 9.57108 8.07108 11.25 6 11.25ZM6 4.125C4.13604 4.125 2.625 5.63606 2.625 7.5C2.625 9.36394 4.13604 10.875 6 10.875C7.86396 10.875 9.375 9.36394 9.375 7.5C9.375 5.63606 7.86396 4.125 6 4.125ZM8.87193 8.28485L8.30662 8.09979L8.2146 8.38549L8.78087 8.57093C8.69507 8.80005 8.58255 9.01542 8.44684 9.21333L8.19934 9.03199L8.11169 9.15349L8.35907 9.33476C8.21542 9.52336 8.04995 9.69391 7.86623 9.84293L7.51508 9.35573L7.27405 9.53227L7.62505 10.0192C7.42633 10.1494 7.21122 10.2564 6.98291 10.3364L6.8901 10.0482L6.74833 10.0947L6.86373 10.3821C6.64073 10.4477 6.3985 10.4882 6.18756 10.5V10.2033V10.0547H5.81256V10.2033V10.5C5.55475 10.4881 5.35073 10.4474 5.12718 10.3813L5.21971 10.1186L5.07323 10.0693L4.99028 10.3324C4.76629 10.2528 4.55596 10.1473 4.36066 10.0192L4.71215 9.53236L4.47144 9.35578L4.12042 9.84298C3.9374 9.69455 3.77259 9.52481 3.62934 9.33712L3.8533 9.17311L3.76023 9.04404L3.53612 9.2081C3.40211 9.01167 3.29076 8.79802 3.20582 8.57093L3.77212 8.38545L3.6801 8.09979L3.11477 8.28487C3.05641 8.06384 3.02209 7.85156 3.01497 7.59377H3.14069V7.43428L3.00023 7.43423C3.00545 7.18566 3.01598 6.94486 3.07677 6.71513L3.66086 6.90028L3.76274 6.61462L3.20104 6.42914C3.28506 6.20484 3.39698 5.9936 3.52881 5.79916L3.77113 5.97572L3.85923 5.85422L3.61802 5.67738C3.76382 5.48395 3.93264 5.30925 4.12037 5.15714L4.47156 5.64434L4.71259 5.46771L4.36162 4.98082C4.55861 4.85159 4.77205 4.74527 4.99818 4.66561L5.09087 4.95265L5.23253 4.90624L5.12425 4.61958C5.34873 4.55292 5.55475 4.51191 5.81256 4.5V4.79672V4.94531H6.18756V4.79672V4.5C6.3985 4.51167 6.6366 4.55152 6.85752 4.61604L6.74594 4.92729L6.89083 4.97665L6.98866 4.66465C7.21591 4.74452 7.42876 4.85114 7.62634 4.98084L7.27473 5.46776L7.51537 5.64436L7.86634 5.15716C8.05232 5.30791 8.21952 5.48088 8.36451 5.67225L8.09969 5.86603L8.19285 5.99522L8.45713 5.80163C8.58826 5.99548 8.6973 6.20576 8.78094 6.42916L8.21458 6.61465L8.30664 6.9003L8.87195 6.71515C8.93256 6.94488 8.99502 7.18566 9.00016 7.43428L8.81256 7.43419V7.59375H8.97168C8.96458 7.85154 8.93022 8.06384 8.87193 8.28485ZM6 9.39844C7.04848 9.39844 7.89844 8.54848 7.89844 7.5C7.89844 6.45152 7.04848 5.60156 6 5.60156C4.95152 5.60156 4.10156 6.45152 4.10156 7.5C4.10156 8.54848 4.95152 9.39844 6 9.39844Z" fill="#333333"/>
<mask id="mask0" mask-type="alpha" maskUnits="userSpaceOnUse" x="1" y="0" width="10" height="12">
<path fill-rule="evenodd" clip-rule="evenodd" d="M9 4.14621V3C9 1.34316 7.65684 0 6 0C4.34316 0 3 1.34316 3 3V4.14623C2.07949 4.9702 1.5 6.16737 1.5 7.5C1.5 9.98529 3.51473 12 6 12C8.48529 12 10.5 9.98529 10.5 7.5C10.5 6.16737 9.92051 4.9702 9 4.14621ZM3.75 3C3.75 1.75934 4.75934 0.75 6 0.75C7.24066 0.75 8.25 1.75934 8.25 3V3.60216C7.5881 3.21926 6.81968 3 6 3C5.18032 3 4.4119 3.21926 3.75 3.60218V3ZM6 11.25C3.92892 11.25 2.25 9.57108 2.25 7.5C2.25 5.42892 3.92892 3.75 6 3.75C8.07108 3.75 9.75 5.42892 9.75 7.5C9.75 9.57108 8.07108 11.25 6 11.25ZM6 4.125C4.13604 4.125 2.625 5.63606 2.625 7.5C2.625 9.36394 4.13604 10.875 6 10.875C7.86396 10.875 9.375 9.36394 9.375 7.5C9.375 5.63606 7.86396 4.125 6 4.125ZM8.87193 8.28485L8.30662 8.09979L8.2146 8.38549L8.78087 8.57093C8.69507 8.80005 8.58255 9.01542 8.44684 9.21333L8.19934 9.03199L8.11169 9.15349L8.35907 9.33476C8.21542 9.52336 8.04995 9.69391 7.86623 9.84293L7.51508 9.35573L7.27405 9.53227L7.62505 10.0192C7.42633 10.1494 7.21122 10.2564 6.98291 10.3364L6.8901 10.0482L6.74833 10.0947L6.86373 10.3821C6.64073 10.4477 6.3985 10.4882 6.18756 10.5V10.2033V10.0547H5.81256V10.2033V10.5C5.55475 10.4881 5.35073 10.4474 5.12718 10.3813L5.21971 10.1186L5.07323 10.0693L4.99028 10.3324C4.76629 10.2528 4.55596 10.1473 4.36066 10.0192L4.71215 9.53236L4.47144 9.35578L4.12042 9.84298C3.9374 9.69455 3.77259 9.52481 3.62934 9.33712L3.8533 9.17311L3.76023 9.04404L3.53612 9.2081C3.40211 9.01167 3.29076 8.79802 3.20582 8.57093L3.77212 8.38545L3.6801 8.09979L3.11477 8.28487C3.05641 8.06384 3.02209 7.85156 3.01497 7.59377H3.14069V7.43428L3.00023 7.43423C3.00545 7.18566 3.01598 6.94486 3.07677 6.71513L3.66086 6.90028L3.76274 6.61462L3.20104 6.42914C3.28506 6.20484 3.39698 5.9936 3.52881 5.79916L3.77113 5.97572L3.85923 5.85422L3.61802 5.67738C3.76382 5.48395 3.93264 5.30925 4.12037 5.15714L4.47156 5.64434L4.71259 5.46771L4.36162 4.98082C4.55861 4.85159 4.77205 4.74527 4.99818 4.66561L5.09087 4.95265L5.23253 4.90624L5.12425 4.61958C5.34873 4.55292 5.55475 4.51191 5.81256 4.5V4.79672V4.94531H6.18756V4.79672V4.5C6.3985 4.51167 6.6366 4.55152 6.85752 4.61604L6.74594 4.92729L6.89083 4.97665L6.98866 4.66465C7.21591 4.74452 7.42876 4.85114 7.62634 4.98084L7.27473 5.46776L7.51537 5.64436L7.86634 5.15716C8.05232 5.30791 8.21952 5.48088 8.36451 5.67225L8.09969 5.86603L8.19285 5.99522L8.45713 5.80163C8.58826 5.99548 8.6973 6.20576 8.78094 6.42916L8.21458 6.61465L8.30664 6.9003L8.87195 6.71515C8.93256 6.94488 8.99502 7.18566 9.00016 7.43428L8.81256 7.43419V7.59375H8.97168C8.96458 7.85154 8.93022 8.06384 8.87193 8.28485ZM6 9.39844C7.04848 9.39844 7.89844 8.54848 7.89844 7.5C7.89844 6.45152 7.04848 5.60156 6 5.60156C4.95152 5.60156 4.10156 6.45152 4.10156 7.5C4.10156 8.54848 4.95152 9.39844 6 9.39844Z" fill="white"/>
</mask>
<g mask="url(#mask0)">
<rect width="12" height="12" fill="#333333"/>
</g>
</svg>
