<svg width="12" height="12" viewBox="0 0 12 12" fill="none" xmlns="http://www.w3.org/2000/svg">
<path fill-rule="evenodd" clip-rule="evenodd" d="M11.8375 1.1127L10.8875 0.162695C10.6688 -0.0529297 10.3188 -0.0529297 10.1031 0.162695L9.10939 1.15645L10.8438 2.89082L11.8375 1.9002C12.0531 1.67832 12.0531 1.32832 11.8375 1.1127ZM8.81563 1.45329L3.44062 7.00016L3 9.00016L5 8.55954L10.5188 3.15329L8.81563 1.45329ZM10 10.6877V6.00015L11 5.00015V11.2689C11 11.672 10.675 12.0002 10.2719 12.0002H0.73125C0.328125 12.0002 0 11.672 0 11.2689V1.72828C0 1.32203 0.325 1.00015 0.73125 1.00015H7L6 2.00015H1.33125C1.14687 2.00015 1 2.1564 1 2.31265V10.6877C1 10.8314 1.13125 11.0002 1.30625 11.0002L9.7125 11.0033C9.87812 11.0033 10 10.847 10 10.6877Z" fill="#001B36"/>
<mask id="mask0" mask-type="alpha" maskUnits="userSpaceOnUse" x="0" y="0" width="12" height="13">
<path fill-rule="evenodd" clip-rule="evenodd" d="M11.8375 1.1127L10.8875 0.162695C10.6688 -0.0529297 10.3188 -0.0529297 10.1031 0.162695L9.10939 1.15645L10.8438 2.89082L11.8375 1.9002C12.0531 1.67832 12.0531 1.32832 11.8375 1.1127ZM8.81563 1.45329L3.44062 7.00016L3 9.00016L5 8.55954L10.5188 3.15329L8.81563 1.45329ZM10 10.6877V6.00015L11 5.00015V11.2689C11 11.672 10.675 12.0002 10.2719 12.0002H0.73125C0.328125 12.0002 0 11.672 0 11.2689V1.72828C0 1.32203 0.325 1.00015 0.73125 1.00015H7L6 2.00015H1.33125C1.14687 2.00015 1 2.1564 1 2.31265V10.6877C1 10.8314 1.13125 11.0002 1.30625 11.0002L9.7125 11.0033C9.87812 11.0033 10 10.847 10 10.6877Z" fill="white"/>
</mask>
<g mask="url(#mask0)">
<rect width="12" height="12" fill="#001B36"/>
</g>
</svg>
