<svg width="552" height="142" viewBox="0 0 552 142" fill="none" xmlns="http://www.w3.org/2000/svg">
<path d="M108.469 120.234C110.695 117.194 112.622 113.216 111.117 107.779C109.494 101.938 104.593 97.0071 100.04 92.6194C94.0652 86.8691 89.1138 81.7263 87.3266 74.1828C86.0368 68.7467 86.0286 63.3485 82.9486 57.6428C79.3653 51.004 72.862 46.4913 67.0759 43.9654C60.3284 41.0284 53.6717 40.1832 46.8579 35.797C42.7034 33.1444 39.3072 29.4604 37.0007 25.1042C35.241 21.8195 33.9669 18.4699 32.1797 15.1934C26.4151 4.61898 15.6762 -1.29747 9.12828 1.43624C2.12313 2.33804 -1.39103 9.47872 2.26458 19.5512C5.18892 27.6071 11.8925 33.5414 17.4976 40.2934C23.5623 47.5912 24.9585 53.9954 25.6891 61.253C26.185 66.1909 26.5433 71.3992 29.242 76.8167C31.9541 82.2595 36.5658 86.4334 41.1649 90.066C46.7828 94.5109 53.5913 98.9521 56.9341 105.901C58.7214 109.625 59.3216 113.322 61.2488 117.062C62.6195 119.652 64.3325 122.046 66.3416 124.18C77.1394 135.811 89.6388 135.945 97.134 131.363C101.618 128.621 105.326 124.526 108.469 120.234Z" fill="#8DC441"/>
<path d="M12.6619 17.6165C21.2395 27.6945 29.7693 37.8096 38.2512 47.962C37.1257 42.796 36 37.6289 34.874 32.4609C34.6573 31.4682 36.3023 31.3297 36.5168 32.3119L40.4077 50.1685C40.4365 50.2921 40.429 50.4214 40.3862 50.5408C47.4953 59.0639 54.568 67.6133 61.6042 76.1889L60.4618 49.7269C60.4186 48.7231 62.0614 48.5697 62.1046 49.578C62.5112 58.9927 62.9175 68.4071 63.3236 77.8213C63.3282 77.9502 63.3003 78.0783 63.2425 78.1936C69.7633 86.1408 76.2479 94.114 82.6963 102.113C82.0862 94.7847 81.4765 87.4566 80.8674 80.129C80.8662 79.9215 80.943 79.7211 81.0825 79.5675C81.222 79.4139 81.4141 79.3183 81.6208 79.2995C81.8274 79.2808 82.0335 79.3403 82.1984 79.4664C82.3633 79.5924 82.4748 79.7757 82.5109 79.9801C83.1876 88.1134 83.8643 96.2463 84.5409 104.379C88.869 109.734 93.1839 115.095 97.4856 120.464L95.4124 98.3326C95.4123 98.1258 95.4895 97.9265 95.6289 97.7738C95.7683 97.6211 95.9598 97.526 96.1657 97.5074C96.3717 97.4887 96.5771 97.5477 96.7417 97.6729C96.9063 97.798 97.0181 97.9802 97.0552 98.1836C97.7547 105.645 98.4539 113.106 99.1529 120.567C99.1618 120.67 99.1489 120.774 99.1149 120.872C99.081 120.97 99.0269 121.06 98.956 121.136C98.8851 121.211 98.7991 121.271 98.7036 121.311C98.6081 121.352 98.5052 121.371 98.4015 121.369C98.4123 121.448 98.4123 121.527 98.4015 121.606C103.358 127.796 108.296 134 113.215 140.218C113.859 141.037 112.522 141.931 111.879 141.117C106.908 134.828 101.914 128.556 96.8965 122.301C88.9749 121.777 81.0903 120.794 73.2822 119.359C73.1792 119.344 73.0802 119.309 72.991 119.255C72.9019 119.202 72.8244 119.131 72.763 119.047C72.7016 118.963 72.6577 118.867 72.6337 118.766C72.6096 118.665 72.6061 118.56 72.6232 118.457C72.6403 118.354 72.6777 118.256 72.7332 118.168C72.7888 118.08 72.8613 118.004 72.9466 117.944C73.0319 117.885 73.1283 117.843 73.23 117.821C73.3317 117.799 73.4368 117.798 73.5391 117.817C80.8211 119.151 88.1698 120.091 95.5531 120.633C91.5438 115.632 87.5256 110.636 83.4984 105.646C83.3455 105.614 83.2074 105.533 83.1056 105.414C83.0037 105.296 82.9439 105.147 82.9354 104.991L82.9309 104.948C82.7417 104.714 82.5504 104.481 82.3597 104.247L58.6143 100.077C58.5113 100.062 58.4124 100.026 58.3232 99.9726C58.2341 99.919 58.1565 99.848 58.0951 99.764C58.0338 99.6799 57.9898 99.5845 57.9658 99.4833C57.9418 99.382 57.9382 99.277 57.9553 99.1743C57.9724 99.0717 58.0098 98.9735 58.0654 98.8855C58.1209 98.7975 58.1935 98.7215 58.2788 98.6619C58.3641 98.6023 58.4604 98.5603 58.5621 98.5384C58.6639 98.5165 58.769 98.5152 58.8712 98.5344L80.854 102.395C74.4637 94.4923 68.0521 86.6064 61.6191 78.7372L36.0313 73.9839C35.9283 73.969 35.8294 73.9337 35.7402 73.88C35.6511 73.8263 35.5735 73.7553 35.5121 73.6713C35.4508 73.5873 35.4068 73.4918 35.3828 73.3906C35.3588 73.2893 35.3552 73.1843 35.3723 73.0817C35.3894 72.979 35.4268 72.8808 35.4824 72.7928C35.5379 72.7048 35.6105 72.6288 35.6958 72.5692C35.7811 72.5096 35.8774 72.4676 35.9791 72.4457C36.0808 72.4238 36.1859 72.4225 36.2882 72.4417C44.2214 73.9147 52.154 75.3882 60.0858 76.8621C52.926 68.1474 45.7354 59.4566 38.514 50.7896C38.3741 50.8481 38.2205 50.8656 38.071 50.8402L25.7436 48.7439C25.6414 48.728 25.5434 48.6919 25.4553 48.6378C25.3671 48.5838 25.2906 48.5127 25.2301 48.4289C25.1696 48.345 25.1263 48.25 25.1028 48.1493C25.0793 48.0486 25.0759 47.9442 25.093 47.8422C25.1101 47.7402 25.1473 47.6426 25.2023 47.5551C25.2574 47.4675 25.3293 47.3918 25.4138 47.3322C25.4983 47.2726 25.5939 47.2304 25.6948 47.208C25.7958 47.1856 25.9002 47.1835 26.002 47.2017L37.1058 49.0887C28.5614 38.8618 19.9677 28.6697 11.3245 18.5124C10.6498 17.7223 11.9894 16.8264 12.6619 17.6165Z" fill="white"/>
<path d="M444.328 120.234C442.103 117.194 440.175 113.216 441.681 107.779C443.304 101.938 448.205 97.0071 452.757 92.6194C458.733 86.8691 463.684 81.7263 465.471 74.1828C466.761 68.7467 466.769 63.3485 469.849 57.6428C473.433 51.004 479.936 46.4913 485.722 43.9654C492.469 41.0284 499.126 40.1832 505.941 35.797C510.095 33.1444 513.491 29.4604 515.798 25.1042C517.558 21.8195 518.832 18.4699 520.619 15.1934C526.383 4.61898 537.122 -1.29747 543.67 1.43624C550.675 2.33804 554.19 9.47872 550.534 19.5512C547.61 27.6071 540.906 33.5414 535.301 40.2934C529.236 47.5912 527.84 53.9954 527.109 61.253C526.614 66.1909 526.255 71.3992 523.557 76.8167C520.845 82.2595 516.233 86.4334 511.634 90.066C506.016 94.5109 499.207 98.9521 495.864 105.901C494.077 109.625 493.477 113.322 491.55 117.062C490.179 119.652 488.466 122.046 486.457 124.18C475.659 135.811 463.16 135.945 455.665 131.363C451.179 128.621 447.472 124.526 444.328 120.234Z" fill="#8DC441"/>
<path d="M540.136 17.6165C531.558 27.6945 523.029 37.8096 514.547 47.962C515.672 42.796 516.798 37.6289 517.924 32.4609C518.141 31.4682 516.496 31.3297 516.281 32.3119L512.39 50.1685C512.362 50.2921 512.369 50.4214 512.412 50.5408C505.303 59.0639 498.23 67.6133 491.194 76.1889L492.336 49.7269C492.379 48.7231 490.737 48.5697 490.693 49.578C490.287 58.9927 489.881 68.4071 489.474 77.8213C489.47 77.9502 489.498 78.0782 489.556 78.1936C483.035 86.1408 476.55 94.114 470.102 102.113C470.712 94.7847 471.321 87.4566 471.931 80.129C471.932 79.9215 471.855 79.7211 471.716 79.5675C471.576 79.4139 471.384 79.3183 471.177 79.2995C470.971 79.2808 470.764 79.3403 470.6 79.4664C470.435 79.5924 470.323 79.7757 470.287 79.9801C469.61 88.1134 468.934 96.2465 468.257 104.379C463.929 109.735 459.614 115.096 455.312 120.464L457.386 98.3333C457.386 98.1266 457.309 97.9272 457.169 97.7745C457.03 97.6218 456.838 97.5267 456.632 97.5081C456.426 97.4894 456.221 97.5485 456.056 97.6736C455.892 97.7988 455.78 97.981 455.743 98.1844C455.043 105.646 454.344 113.107 453.645 120.568C453.636 120.671 453.649 120.775 453.683 120.873C453.717 120.971 453.771 121.061 453.842 121.136C453.913 121.212 453.999 121.272 454.094 121.312C454.19 121.352 454.293 121.372 454.397 121.37C454.386 121.448 454.386 121.528 454.397 121.607C449.44 127.797 444.502 134.001 439.583 140.219C438.939 141.038 440.276 141.932 440.919 141.118C445.891 134.825 450.885 128.55 455.902 122.29C463.824 121.766 471.708 120.784 479.517 119.349C479.62 119.334 479.719 119.299 479.808 119.245C479.897 119.191 479.974 119.12 480.036 119.036C480.097 118.952 480.141 118.857 480.165 118.755C480.189 118.654 480.193 118.549 480.176 118.447C480.159 118.344 480.121 118.246 480.066 118.158C480.01 118.07 479.937 117.994 479.852 117.934C479.767 117.874 479.671 117.832 479.569 117.811C479.467 117.789 479.362 117.787 479.26 117.807C471.978 119.141 464.629 120.081 457.246 120.623C461.255 115.621 465.273 110.625 469.3 105.636C469.453 105.604 469.591 105.522 469.693 105.404C469.795 105.286 469.855 105.137 469.863 104.981L469.868 104.938C470.057 104.704 470.248 104.47 470.439 104.236L494.185 100.066C494.287 100.051 494.386 100.016 494.476 99.9622C494.565 99.9085 494.642 99.8376 494.704 99.7536C494.765 99.6695 494.809 99.5741 494.833 99.4728C494.857 99.3716 494.861 99.2665 494.843 99.1639C494.826 99.0612 494.789 98.9631 494.733 98.8751C494.678 98.7871 494.605 98.711 494.52 98.6514C494.435 98.5918 494.338 98.5499 494.237 98.528C494.135 98.5061 494.03 98.5047 493.928 98.524L471.945 102.384C478.336 94.4848 484.747 86.6015 491.18 78.7342L516.768 73.981C516.871 73.966 516.97 73.9307 517.059 73.877C517.148 73.8233 517.226 73.7524 517.287 73.6683C517.349 73.5843 517.393 73.4889 517.417 73.3876C517.441 73.2864 517.444 73.1813 517.427 73.0787C517.41 72.976 517.373 72.8778 517.317 72.7898C517.262 72.7018 517.189 72.6258 517.104 72.5662C517.018 72.5066 516.922 72.4646 516.82 72.4428C516.719 72.4209 516.614 72.4195 516.511 72.4388C508.578 73.9117 500.646 75.3852 492.714 76.8591C499.874 68.1445 507.064 59.4536 514.285 50.7866C514.425 50.8451 514.579 50.8627 514.729 50.8372L527.056 48.741C527.158 48.725 527.256 48.6889 527.344 48.6349C527.432 48.5808 527.509 48.5097 527.569 48.4259C527.63 48.342 527.673 48.247 527.697 48.1463C527.72 48.0456 527.724 47.9412 527.707 47.8392C527.689 47.7372 527.652 47.6396 527.597 47.5521C527.542 47.4645 527.47 47.3888 527.386 47.3292C527.301 47.2697 527.206 47.2275 527.105 47.2051C527.004 47.1827 526.899 47.1805 526.798 47.1987L515.692 49.0917C524.237 38.8648 532.83 28.6727 541.474 18.5154C542.148 17.7223 540.809 16.8264 540.136 17.6165Z" fill="white"/>
</svg>
