<svg width="128" height="40" viewBox="0 0 128 40" fill="none" xmlns="http://www.w3.org/2000/svg">
<path d="M14.8177 38.7731C22.449 38.7731 28.6354 32.5867 28.6354 24.9554C28.6354 17.3241 22.449 11.1377 14.8177 11.1377C7.18639 11.1377 1 17.3241 1 24.9554C1 32.5867 7.18639 38.7731 14.8177 38.7731Z" stroke="#8DC441" stroke-miterlimit="10"/>
<path d="M14.8177 36.8302C21.3758 36.8302 26.6923 31.5138 26.6923 24.9556C26.6923 18.3975 21.3758 13.0811 14.8177 13.0811C8.25954 13.0811 2.94312 18.3975 2.94312 24.9556C2.94312 31.5138 8.25954 36.8302 14.8177 36.8302Z" fill="url(#paint0_radial)" stroke="#8DC441" stroke-miterlimit="10"/>
<path d="M14.8174 18.478C13.3693 18.478 11.9803 19.0523 10.955 20.0749C9.92964 21.0975 9.35171 22.485 9.3479 23.9331V27.3156C9.34942 27.7765 9.53329 28.2181 9.85935 28.5439C10.1854 28.8697 10.6271 29.0532 11.0881 29.0543H12.6713V24.7766H10.7728V23.6395C10.8123 22.5944 11.2552 21.6052 12.0086 20.8797C12.762 20.1542 13.7672 19.7489 14.8131 19.7489C15.859 19.7489 16.8642 20.1542 17.6175 20.8797C18.3709 21.6052 18.8139 22.5944 18.8533 23.6395V25.2516H16.962V29.0543H18.3884V29.1695C18.2445 30.0331 16.6324 30.9557 16.6324 30.9557H14.9354C14.7915 30.9557 14.6476 31.0233 14.6476 31.1601C14.6545 31.2326 14.6875 31.3001 14.7404 31.3502C14.7933 31.4002 14.8626 31.4293 14.9354 31.4321H16.7792C17.3299 31.4302 17.8574 31.2106 18.2468 30.8213C18.6362 30.4319 18.8557 29.9043 18.8576 29.3537V29.1911C19.7126 28.9867 20.284 28.3073 20.284 27.4926V24.0037C20.3531 20.9263 17.9005 18.478 14.8174 18.478Z" fill="white"/>
<path d="M19.4812 0C19.3372 0.523921 19.1199 1.32132 18.9054 2.30295C18.4635 4.33242 18.2462 5.36875 18.4736 6.47704C18.6838 7.49897 19.1256 8.20425 19.4812 8.77999C20.0733 9.74461 20.8571 10.5774 21.7841 11.2269C22.3201 11.5881 22.9007 11.8784 23.5113 12.0905L24.3749 12.3783L24.5189 11.8026L25.3825 9.21179C25.4516 8.8793 25.7956 7.12475 25.3825 5.61344C25.2704 5.21839 25.126 4.83326 24.9507 4.46196C24.7487 4.0557 24.5077 3.67006 24.231 3.31049C23.8873 2.8446 23.5019 2.411 23.0795 2.01508C22.4854 1.43502 21.8058 0.949584 21.0644 0.575737C20.5598 0.325332 20.0288 0.132217 19.4812 0Z" fill="url(#paint1_radial)"/>
<path d="M25.5263 12.6662L25.8141 12.8102L27.1095 12.9541C27.6343 13.0334 28.168 13.0334 28.6928 12.9541C29.2959 12.857 29.8793 12.6626 30.42 12.3784C30.8267 12.1772 31.2124 11.9361 31.5715 11.6587C31.956 11.3753 32.2956 11.0356 32.579 10.6512C32.893 10.2121 33.1359 9.72639 33.2987 9.21181C33.5995 8.36548 33.945 7.35218 34.3062 6.18919V6.04526H33.2987C32.7235 6.01096 32.1467 6.01096 31.5715 6.04526C31.1841 6.05796 30.7986 6.10614 30.42 6.18919C30.0211 6.28916 29.6348 6.43402 29.2685 6.621C28.8611 6.82079 28.4752 7.06195 28.1171 7.34067C27.8012 7.54474 27.5112 7.7864 27.2535 8.06034C26.9708 8.36351 26.7289 8.70221 26.5338 9.06788C25.8228 10.346 25.4327 12.3956 25.3823 12.6662H25.5263Z" fill="url(#paint2_radial)"/>
<path d="M43.198 28.678H37.87V19.3H35.35V31H42.928L43.198 28.678ZM46.0084 21.244C46.8904 21.244 47.5924 20.614 47.5924 19.75C47.5924 18.868 46.8904 18.274 46.0084 18.274C45.1444 18.274 44.4604 18.868 44.4604 19.75C44.4604 20.614 45.1444 21.244 46.0084 21.244ZM47.2684 31V22.234H44.8024V31H47.2684ZM52.0496 26.212C52.0496 25.618 52.2656 25.168 52.6076 24.826C52.9316 24.52 53.3636 24.376 53.8316 24.376C54.2816 24.376 54.6956 24.52 55.0016 24.826C55.3436 25.168 55.5056 25.636 55.5056 26.23V31H57.9716V26.212C57.9716 25.6 58.1696 25.132 58.5656 24.79C58.8716 24.52 59.3036 24.376 59.7536 24.376C60.1856 24.376 60.5996 24.52 60.9236 24.826C61.2656 25.15 61.4096 25.636 61.4096 26.23V31H63.8756V25.942C63.8756 24.718 63.5336 23.71 62.8136 23.008C62.2196 22.432 61.3736 22.072 60.3476 22.072C59.3576 22.072 58.2056 22.45 57.4316 23.674C57.2696 23.422 57.1076 23.206 56.8916 23.008C56.2796 22.432 55.4516 22.072 54.4256 22.072C53.5076 22.072 52.4636 22.45 51.7076 23.584L51.5816 22.234H49.5836V31H52.0496V26.212ZM74.2808 29.452L72.6968 28.066C72.0668 28.678 71.3468 29.002 70.3028 29.002C69.6548 29.002 69.0068 28.768 68.5748 28.336C68.3408 28.102 68.1788 27.76 68.0888 27.346H74.6228V26.788C74.6228 25.402 74.3168 24.196 73.4168 23.332C72.5348 22.468 71.4548 22.072 70.1408 22.072C68.8268 22.072 67.6568 22.576 66.8108 23.404C65.9828 24.196 65.5328 25.366 65.5328 26.626C65.5328 27.868 65.9468 29.056 66.7928 29.848C67.6568 30.712 68.8628 31.162 70.2308 31.162C71.9048 31.162 73.3268 30.604 74.2808 29.452ZM68.6108 24.664C69.0248 24.268 69.5468 24.088 70.1408 24.088C70.7528 24.106 71.2208 24.268 71.5988 24.646C71.8868 24.934 72.0308 25.276 72.1028 25.708H68.0528C68.1428 25.276 68.3228 24.97 68.6108 24.664ZM83.3383 31H85.2823V18.4H82.8163V23.134C82.1683 22.432 81.2503 22.072 80.2963 22.072C78.9643 22.072 77.9923 22.504 77.2003 23.278C76.3543 24.106 75.8863 25.312 75.8863 26.626C75.8863 27.922 76.3543 29.128 77.2183 29.974C78.0103 30.748 78.9823 31.162 80.2963 31.162C81.5563 31.162 82.6183 30.586 83.1943 29.65L83.3383 31ZM80.6383 28.876C80.0263 28.876 79.4683 28.642 79.0723 28.264C78.6583 27.868 78.4243 27.256 78.4243 26.626C78.4243 26.014 78.6583 25.42 79.0723 25.006C79.4683 24.628 80.0263 24.376 80.6383 24.376C81.2683 24.376 81.8443 24.628 82.2043 25.006C82.6363 25.402 82.8703 25.996 82.8703 26.626C82.8703 27.256 82.6363 27.85 82.2043 28.246C81.8443 28.624 81.2683 28.876 80.6383 28.876ZM95.8491 29.452L94.2651 28.066C93.6351 28.678 92.9151 29.002 91.8711 29.002C91.2231 29.002 90.5751 28.768 90.1431 28.336C89.9091 28.102 89.7471 27.76 89.6571 27.346H96.1911V26.788C96.1911 25.402 95.8851 24.196 94.9851 23.332C94.1031 22.468 93.0231 22.072 91.7091 22.072C90.3951 22.072 89.2251 22.576 88.3791 23.404C87.5511 24.196 87.1011 25.366 87.1011 26.626C87.1011 27.868 87.5151 29.056 88.3611 29.848C89.2251 30.712 90.4311 31.162 91.7991 31.162C93.4731 31.162 94.8951 30.604 95.8491 29.452ZM90.1791 24.664C90.5931 24.268 91.1151 24.088 91.7091 24.088C92.3211 24.106 92.7891 24.268 93.1671 24.646C93.4551 24.934 93.5991 25.276 93.6711 25.708H89.6211C89.7111 25.276 89.8911 24.97 90.1791 24.664ZM100.929 25.618C100.173 25.474 99.8846 25.276 99.8846 24.862C99.8846 24.376 100.389 24.07 101.091 24.07C101.937 24.07 102.603 24.268 103.557 24.862L104.385 22.99C103.359 22.36 102.189 22.054 100.947 22.054C98.8766 22.054 97.4546 23.206 97.4546 24.826C97.4546 26.374 98.4986 27.148 100.011 27.418L101.145 27.634C101.721 27.742 102.063 27.94 102.063 28.318C102.063 28.84 101.523 29.146 100.731 29.146C99.7766 29.146 99.1286 28.894 98.1746 28.372L97.2386 30.298C98.2646 30.82 99.5246 31.162 100.911 31.162C103.071 31.162 104.583 30.01 104.583 28.372C104.583 26.86 103.557 26.158 101.919 25.816L100.929 25.618ZM112.264 31H115.36L111.508 26.5L115.288 22.234H112.462L108.862 26.248V18.4H106.396V31H108.862V26.914L112.264 31ZM119.192 25.618C118.436 25.474 118.148 25.276 118.148 24.862C118.148 24.376 118.652 24.07 119.354 24.07C120.2 24.07 120.866 24.268 121.82 24.862L122.648 22.99C121.622 22.36 120.452 22.054 119.21 22.054C117.14 22.054 115.718 23.206 115.718 24.826C115.718 26.374 116.762 27.148 118.274 27.418L119.408 27.634C119.984 27.742 120.326 27.94 120.326 28.318C120.326 28.84 119.786 29.146 118.994 29.146C118.04 29.146 117.392 28.894 116.438 28.372L115.502 30.298C116.528 30.82 117.788 31.162 119.174 31.162C121.334 31.162 122.846 30.01 122.846 28.372C122.846 26.86 121.82 26.158 120.182 25.816L119.192 25.618Z" fill="#B5D235"/>
<defs>
<radialGradient id="paint0_radial" cx="0" cy="0" r="1" gradientUnits="userSpaceOnUse" gradientTransform="translate(14.8177 24.9556) scale(11.8746)">
<stop offset="0.6" stop-color="#B5D232"/>
<stop offset="1" stop-color="#8DC441"/>
</radialGradient>
<radialGradient id="paint1_radial" cx="0" cy="0" r="1" gradientUnits="userSpaceOnUse" gradientTransform="translate(21.335 4.89376) scale(10.1229)">
<stop offset="0.4" stop-color="#ACCF36"/>
<stop offset="0.6" stop-color="#B5D232"/>
<stop offset="1" stop-color="#8DC441"/>
</radialGradient>
<radialGradient id="paint2_radial" cx="0" cy="0" r="1" gradientUnits="userSpaceOnUse" gradientTransform="translate(27.9933 11.6443) scale(10.0884)">
<stop offset="0.21" stop-color="#B5D232"/>
<stop offset="0.92" stop-color="#8DC441"/>
</radialGradient>
</defs>
</svg>
