<svg width="12" height="12" viewBox="0 0 12 12" fill="none" xmlns="http://www.w3.org/2000/svg">
<path fill-rule="evenodd" clip-rule="evenodd" d="M6.68571 6.91875C6.95089 6.70446 7.07143 6.60536 7.07143 5.57143H8.78571V5.70804C8.77232 6.85446 8.59554 7.57768 7.76786 8.25C7.14911 8.75357 6.40714 8.80714 5.75357 8.85268C5.73489 8.85413 5.71629 8.85557 5.69778 8.857C5.47728 8.87403 5.26801 8.8902 5.06786 8.92232C4.89911 8.94911 4.70625 9.05357 4.52679 9.18214C4.77589 9.47946 4.92857 9.86518 4.92857 10.2857C4.92857 11.2312 4.15982 12 3.21429 12C2.26875 12 1.5 11.2312 1.5 10.2857C1.5 9.65089 1.84554 9.09911 2.35714 8.80179V3.19821C1.84554 2.90089 1.5 2.34911 1.5 1.71429C1.5 0.76875 2.26875 0 3.21429 0C4.15982 0 4.92857 0.76875 4.92857 1.71429C4.92857 2.34911 4.58304 2.90089 4.07143 3.19821V7.46518C4.29643 7.35536 4.5375 7.26964 4.78929 7.22946C5.08299 7.1814 5.37403 7.15996 5.62792 7.14125L5.63036 7.14107C6.09107 7.10893 6.4875 7.07946 6.68571 6.91875ZM8.78575 1.28571H10.0715V3H8.78575V4.28571H7.07147V3H5.78576V1.28571H7.07147V0H8.78575V1.28571ZM3.21426 0.857272C3.68569 0.857272 4.07141 1.24299 4.07141 1.71441C4.07141 2.18584 3.68569 2.57156 3.21426 2.57156C2.74284 2.57156 2.35712 2.18584 2.35712 1.71441C2.35712 1.24299 2.74284 0.857272 3.21426 0.857272ZM3.21426 11.1429C2.74284 11.1429 2.35712 10.7572 2.35712 10.2857C2.35712 9.81431 2.74284 9.42859 3.21426 9.42859C3.68569 9.42859 4.07141 9.81431 4.07141 10.2857C4.07141 10.7572 3.68569 11.1429 3.21426 11.1429Z" fill="#333333"/>
<mask id="mask0" mask-type="alpha" maskUnits="userSpaceOnUse" x="1" y="0" width="10" height="12">
<path fill-rule="evenodd" clip-rule="evenodd" d="M6.68571 6.91875C6.95089 6.70446 7.07143 6.60536 7.07143 5.57143H8.78571V5.70804C8.77232 6.85446 8.59554 7.57768 7.76786 8.25C7.14911 8.75357 6.40714 8.80714 5.75357 8.85268C5.73489 8.85413 5.71629 8.85557 5.69778 8.857C5.47728 8.87403 5.26801 8.8902 5.06786 8.92232C4.89911 8.94911 4.70625 9.05357 4.52679 9.18214C4.77589 9.47946 4.92857 9.86518 4.92857 10.2857C4.92857 11.2312 4.15982 12 3.21429 12C2.26875 12 1.5 11.2312 1.5 10.2857C1.5 9.65089 1.84554 9.09911 2.35714 8.80179V3.19821C1.84554 2.90089 1.5 2.34911 1.5 1.71429C1.5 0.76875 2.26875 0 3.21429 0C4.15982 0 4.92857 0.76875 4.92857 1.71429C4.92857 2.34911 4.58304 2.90089 4.07143 3.19821V7.46518C4.29643 7.35536 4.5375 7.26964 4.78929 7.22946C5.08299 7.1814 5.37403 7.15996 5.62792 7.14125L5.63036 7.14107C6.09107 7.10893 6.4875 7.07946 6.68571 6.91875ZM8.78575 1.28571H10.0715V3H8.78575V4.28571H7.07147V3H5.78576V1.28571H7.07147V0H8.78575V1.28571ZM3.21426 0.857272C3.68569 0.857272 4.07141 1.24299 4.07141 1.71441C4.07141 2.18584 3.68569 2.57156 3.21426 2.57156C2.74284 2.57156 2.35712 2.18584 2.35712 1.71441C2.35712 1.24299 2.74284 0.857272 3.21426 0.857272ZM3.21426 11.1429C2.74284 11.1429 2.35712 10.7572 2.35712 10.2857C2.35712 9.81431 2.74284 9.42859 3.21426 9.42859C3.68569 9.42859 4.07141 9.81431 4.07141 10.2857C4.07141 10.7572 3.68569 11.1429 3.21426 11.1429Z" fill="white"/>
</mask>
<g mask="url(#mask0)">
<rect width="12" height="12" fill="#333333"/>
</g>
</svg>
