<svg width="769" height="601" viewBox="0 0 769 601" fill="none" xmlns="http://www.w3.org/2000/svg">
<g opacity="0.31">
<path opacity="0.31" d="M146.352 600.913C95.7339 598.72 46.0366 577.184 21.747 540.23C-0.723125 506.061 -4.88832 453.142 5.15198 415.113C13.592 383.181 37.7062 355.548 65.1965 332.17C120.747 284.886 192.344 250.608 239.28 197.315C265.367 167.686 282.795 133.342 307.83 103.077C356.628 44.3239 437.411 2.63284 523.302 0.00110864C609.192 -2.63062 697.122 37.6787 732.855 102.617C763.546 158.453 755.544 226.155 793.36 278.921C810.722 303.177 836.634 322.432 855.706 345.789C889.685 387.326 899.945 441.65 882.933 489.854C865.922 538.059 822.077 579.158 766.395 598.918" fill="#C5E1F9"/>
</g>
<g opacity="0.31">
<path opacity="0.31" d="M702.8 596.372C738.116 594.837 772.775 580.67 789.721 556.326C805.373 533.803 808.289 498.911 801.273 473.865C795.398 452.812 778.584 434.609 759.402 419.191C720.666 388.049 670.815 365.438 637.932 330.304C619.737 310.786 597.946 265.695 580.453 245.782C546.43 207.052 506.027 181.611 446.443 175.273C369.606 167.093 318.594 225.101 293.69 267.91C272.272 304.711 277.862 349.319 251.49 384.145C239.367 400.133 221.304 412.831 207.997 428.205C184.321 455.597 177.153 491.388 189.012 523.167C200.872 554.945 231.519 582.03 270.299 595.057" fill="#C5E1F9"/>
</g>
<path d="M215.187 551.633C212.578 544.155 204.796 541.282 197.868 540.229C182.676 564.002 163.692 568.739 153.301 569.353L156.326 587.183H190.546L192.388 572.95C201.157 572.797 208.742 569.836 212.863 564.748C214.382 562.966 215.398 560.812 215.806 558.506C216.214 556.201 216.001 553.828 215.187 551.633ZM206.286 559.419C204.248 561.941 199.71 564.134 193.484 564.463L195.545 548.475C200.63 549.089 205.892 550.668 207.207 554.44C207.527 555.274 207.611 556.181 207.448 557.059C207.286 557.938 206.884 558.754 206.286 559.419Z" fill="#10245D"/>
<path d="M197.869 540.229L196.619 540.032L198.811 523.978C198.839 523.754 198.819 523.526 198.753 523.31C198.686 523.094 198.575 522.894 198.426 522.724C198.277 522.554 198.093 522.418 197.888 522.324C197.682 522.23 197.459 522.181 197.233 522.18H147.382C147.112 522.174 146.844 522.232 146.599 522.348C146.355 522.463 146.14 522.634 145.972 522.846C145.805 523.059 145.688 523.307 145.632 523.572C145.577 523.837 145.583 524.111 145.651 524.373L153.301 569.463C163.692 568.739 182.677 564.002 197.869 540.229Z" fill="#5198DD"/>
<path d="M175.026 515.513C170.094 512.881 165.38 503.407 163.429 499.02C162.358 496.869 161.771 494.51 161.71 492.107C161.65 489.705 162.117 487.318 163.079 485.116C164.898 481.497 168.384 478.997 170.554 475.576C171.677 473.806 172.425 471.824 172.753 469.753C173.081 467.683 172.982 465.567 172.461 463.536C170.97 457.834 166.301 453.294 165.227 447.504C163.977 440.706 167.923 434.17 169.611 427.481C171.203 421.283 170.89 414.748 168.713 408.73C173.535 411.581 176.429 416.757 179.104 421.713C181.515 426.209 184.036 431.034 183.685 436.166C183.219 439.354 182.311 442.461 180.989 445.399C178.95 450.86 177.547 456.869 178.994 462.505C181.186 471.036 189.604 477.725 189.275 486.629C189.004 489.239 188.182 491.762 186.863 494.031C185.544 496.299 183.758 498.262 181.625 499.788C178.758 501.628 176.198 503.907 174.04 506.543C172.176 509.394 172.11 513.846 174.982 515.644" fill="white"/>
<path d="M479.063 257.23C475.133 265.911 472.29 275.045 470.601 284.425C469.132 293.548 468.628 302.847 466.348 311.816C464.165 319.702 461.167 327.338 457.404 334.603C457.012 335.271 456.786 336.023 456.746 336.796C456.862 337.515 457.141 338.198 457.563 338.791C457.985 339.384 458.538 339.872 459.179 340.217C468.196 346.665 478.693 350.733 489.698 352.044C500.704 353.355 511.862 351.867 522.139 347.718" fill="#4B3C51"/>
<path d="M474.327 318.791C484.037 318.791 491.909 309.001 491.909 296.925C491.909 284.849 484.037 275.06 474.327 275.06C464.618 275.06 456.746 284.849 456.746 296.925C456.746 309.001 464.618 318.791 474.327 318.791Z" fill="#00B7D8"/>
<path d="M482.592 321.883C492.302 321.883 500.174 312.093 500.174 300.018C500.174 287.942 492.302 278.152 482.592 278.152C472.882 278.152 465.011 287.942 465.011 300.018C465.011 312.093 472.882 321.883 482.592 321.883Z" fill="#04A2BC"/>
<path d="M522.14 347.696L485.464 270.718C481.408 284.227 477.353 297.759 473.516 311.356C472.105 315.845 471.115 320.456 470.557 325.129C470.186 329.226 470.467 333.357 471.39 337.366C472.155 341.316 473.938 344.998 476.564 348.047C477.078 348.558 477.619 349.041 478.186 349.494C492.609 353.96 508.129 353.325 522.14 347.696Z" fill="#3E3244"/>
<path d="M514.446 345.042C516.09 354.385 517.471 364.999 511.661 372.522C510.141 373.951 509.093 375.81 508.658 377.851C508.527 380.57 511.135 382.588 513.569 383.794C518.309 386.128 523.474 387.473 528.75 387.749C534.026 388.024 539.302 387.223 544.26 385.395C545.097 385.144 545.854 384.675 546.452 384.036C547.701 382.5 546.912 380.242 546.145 378.421C542.678 370.024 540.94 361.013 541.034 351.927C541.128 342.842 543.053 333.869 546.693 325.545" fill="#9C7943"/>
<path d="M513.612 342.323C515.422 348.69 516.09 355.328 515.585 361.929C515.551 362.04 515.543 362.157 515.562 362.271C515.581 362.385 515.627 362.493 515.695 362.587C515.914 362.828 516.265 362.741 516.572 362.587C518.756 361.887 520.847 360.922 522.798 359.714C526.371 357.213 529.307 353.908 531.369 350.064C533.671 345.463 534.693 340.327 534.329 335.195" fill="#886838"/>
<path d="M491.997 258.48C485.421 265.937 483.798 276.529 482.922 286.464C481.904 295.207 481.904 304.038 482.922 312.781C483.941 321.586 487.378 329.936 492.852 336.906C495.228 339.777 498.022 342.276 501.139 344.318C503.248 345.763 505.603 346.811 508.088 347.411C512.845 348.441 517.756 347.06 522.359 345.568C532.882 342.169 543.733 337.542 550.222 328.594C558.684 316.904 564.296 286.201 566.488 271.946" fill="#9C7943"/>
<path d="M478.734 267.559C488.649 276.106 500.723 281.759 513.634 283.898C521.103 284.962 528.654 285.336 536.192 285.017C539.02 285.048 541.843 284.769 544.61 284.183C548.487 283.367 551.893 281.069 554.102 277.779C555.178 276.135 555.764 274.218 555.791 272.253C555.819 270.288 555.286 268.356 554.256 266.682" fill="#886838"/>
<path d="M563.682 228.632C544.916 219.552 517.755 221.438 504.098 229.246C490.44 237.053 484.784 244.071 477.66 260.344C477.243 261.331 474.766 267.318 475.139 268.305C475.27 268.748 475.506 269.152 475.826 269.484C476.147 269.817 476.542 270.067 476.98 270.213C493.838 276.661 508.657 277.823 526.699 278.722C532.699 279.209 538.738 278.832 544.631 277.604C552.896 305.303 548.599 325.172 534.832 350.591C543.777 354.363 578.676 356.556 595.206 343.704C599.588 340.491 603.26 336.407 605.991 331.708C612.568 319.668 609.762 304.82 606.167 291.574C603.779 281.63 600.248 271.997 595.644 262.866C588.191 249.05 578.106 234.838 563.682 228.632Z" fill="#4B3C51"/>
<path d="M497.96 319.536C499.341 323.769 500.898 327.673 504.537 330.063C506.466 331.143 508.632 331.73 510.842 331.772C513.052 331.814 515.239 331.31 517.208 330.304C521.198 328.418 524.99 323.725 527.774 320.326C517.807 321.358 507.749 321.093 497.851 319.536" fill="white"/>
<path d="M575.761 341.796C574.579 340.933 573.642 339.777 573.043 338.441C572.341 335.686 572.58 332.776 573.723 330.173C575.211 325.614 575.951 320.845 575.915 316.049C575.862 311.232 574.142 306.582 571.048 302.891C566.401 297.737 559.123 296.114 552.327 294.732L547.942 293.877C550.485 313.746 545.64 330.458 534.789 350.635C543.755 354.407 578.633 356.6 595.184 343.748C595.798 343.266 596.368 342.761 596.96 342.257C595.954 342.857 594.906 343.385 593.825 343.836C590.889 345.059 587.69 345.513 584.529 345.157C581.369 344.8 578.351 343.643 575.761 341.796Z" fill="#3E3244"/>
<path d="M514.643 294.557C513.378 293.834 511.946 293.453 510.489 293.453C509.031 293.453 507.6 293.834 506.334 294.557L505.436 293.241C506.944 292.354 508.662 291.886 510.412 291.886C512.162 291.886 513.88 292.354 515.388 293.241L514.643 294.557Z" fill="#161119"/>
<path d="M548.183 294.096L543.996 294.03V292.429H547.986L548.183 294.096Z" fill="#161119"/>
<path d="M509.228 297.452L504.164 313.001L512.144 313.637" fill="#8C6C3A"/>
<path d="M525.077 285.104C525.406 284.907 525.757 284.753 526.085 284.578L526.721 284.293H526.48C527.006 284.074 527.532 283.876 528.08 283.701C528.747 283.479 529.428 283.303 530.119 283.174C530.558 283.174 530.996 282.999 531.434 282.955H531.193C532.471 282.777 533.765 282.74 535.052 282.845L536.257 282.955H535.994C537.302 283.127 538.588 283.436 539.831 283.876L540.971 284.315H540.751C542.146 284.907 543.476 285.642 544.719 286.508C544.837 286.557 544.964 286.583 545.092 286.583C545.22 286.583 545.347 286.557 545.465 286.508C545.701 286.435 545.903 286.279 546.035 286.069C546.132 285.83 546.132 285.563 546.035 285.324C545.963 285.086 545.807 284.883 545.596 284.753C543.634 283.392 541.465 282.355 539.173 281.683C537.301 281.136 535.358 280.87 533.407 280.894C531.81 280.911 530.221 281.118 528.672 281.508C527.529 281.796 526.414 282.185 525.34 282.67C524.898 282.867 524.466 283.087 524.047 283.328C523.831 283.453 523.673 283.658 523.608 283.898C523.511 284.137 523.511 284.405 523.608 284.644C523.739 284.854 523.942 285.009 524.178 285.082C524.431 285.146 524.699 285.107 524.924 284.973L525.077 285.104Z" fill="#3E3244"/>
<path d="M499.209 285.104C498.937 284.84 498.644 284.598 498.332 284.381L497.762 284.008L497.96 284.139C497.499 283.832 497.017 283.547 496.513 283.262C495.894 282.935 495.257 282.642 494.606 282.385C494.19 282.209 493.766 282.055 493.334 281.924H493.575C492.348 281.528 491.085 281.249 489.805 281.091H488.599H488.862C487.543 281.021 486.22 281.095 484.916 281.31C484.511 281.362 484.108 281.435 483.71 281.53H483.973C482.483 281.859 484.456 282.867 481.781 282.166C482.217 281.412 482.814 280.765 483.531 280.272C484.248 279.779 485.066 279.452 485.925 279.315C487.863 279.117 489.821 279.205 491.734 279.578C493.308 279.892 494.838 280.392 496.294 281.069C497.358 281.556 498.378 282.135 499.341 282.802C499.75 283.071 500.139 283.372 500.503 283.701C500.688 283.873 500.805 284.107 500.832 284.359C500.841 284.486 500.824 284.614 500.783 284.734C500.741 284.855 500.676 284.966 500.59 285.06C500.513 285.156 500.416 285.234 500.307 285.291C500.197 285.348 500.078 285.381 499.955 285.389C499.826 285.404 499.695 285.391 499.571 285.354C499.446 285.316 499.331 285.254 499.231 285.17L499.209 285.104Z" fill="#3E3244"/>
<path d="M525.691 295.763C526.426 294.851 527.345 294.104 528.388 293.57C529.696 292.99 531.149 292.818 532.556 293.076C533.964 293.335 535.261 294.011 536.279 295.017C536.806 295.456 537.595 294.688 537.047 294.25C535.927 293.152 534.52 292.393 532.989 292.059C531.457 291.725 529.862 291.831 528.388 292.364C526.931 292.995 525.673 294.011 524.748 295.302C524.332 295.894 525.275 296.443 525.691 295.851V295.763Z" fill="#3E3244"/>
<path d="M485.859 294.337C486.602 293.425 487.528 292.678 488.577 292.144C489.88 291.554 491.332 291.377 492.738 291.635C494.145 291.894 495.439 292.577 496.447 293.592C496.995 294.03 497.784 293.263 497.236 292.802C496.116 291.706 494.708 290.949 493.176 290.619C491.643 290.29 490.049 290.4 488.577 290.938C487.112 291.567 485.847 292.583 484.916 293.877C484.521 294.447 485.464 294.995 485.859 294.425V294.337Z" fill="#3E3244"/>
<path opacity="0.45" d="M537.814 316.839C541.603 316.839 544.675 313.765 544.675 309.974C544.675 306.183 541.603 303.11 537.814 303.11C534.024 303.11 530.952 306.183 530.952 309.974C530.952 313.765 534.024 316.839 537.814 316.839Z" fill="#886838"/>
<path opacity="0.45" d="M488.38 313.088C491.576 313.088 494.168 310.496 494.168 307.299C494.168 304.101 491.576 301.509 488.38 301.509C485.184 301.509 482.593 304.101 482.593 307.299C482.593 310.496 485.184 313.088 488.38 313.088Z" fill="#886838"/>
<path d="M491.273 309.601C488.267 309.606 485.327 308.718 482.825 307.049C480.323 305.381 478.373 303.007 477.22 300.229C476.068 297.451 475.765 294.394 476.35 291.444C476.936 288.493 478.383 285.783 480.509 283.656C482.635 281.53 485.344 280.082 488.293 279.496C491.242 278.91 494.298 279.213 497.075 280.366C499.852 281.519 502.225 283.47 503.892 285.973C505.56 288.476 506.448 291.417 506.443 294.425C506.432 298.447 504.83 302.3 501.987 305.144C499.145 307.987 495.293 309.59 491.273 309.601ZM491.273 281.091C488.615 281.087 486.014 281.871 483.802 283.346C481.589 284.821 479.863 286.919 478.843 289.375C477.822 291.831 477.553 294.535 478.069 297.144C478.585 299.753 479.863 302.151 481.742 304.033C483.62 305.916 486.014 307.198 488.622 307.719C491.229 308.239 493.932 307.974 496.389 306.957C498.846 305.94 500.946 304.217 502.423 302.006C503.901 299.795 504.69 297.195 504.69 294.535C504.701 292.763 504.363 291.006 503.695 289.365C503.026 287.724 502.04 286.231 500.794 284.972C499.548 283.713 498.065 282.712 496.431 282.027C494.798 281.343 493.045 280.987 491.273 280.981V281.091Z" fill="#161119"/>
<path d="M529.462 309.601C526.455 309.606 523.515 308.718 521.013 307.049C518.512 305.381 516.561 303.007 515.409 300.229C514.256 297.451 513.953 294.394 514.539 291.444C515.124 288.493 516.572 285.783 518.698 283.656C520.824 281.53 523.533 280.082 526.482 279.496C529.431 278.91 532.487 279.213 535.264 280.366C538.041 281.519 540.413 283.47 542.081 285.973C543.749 288.476 544.636 291.417 544.632 294.425C544.62 298.447 543.019 302.3 540.176 305.144C537.334 307.987 533.482 309.59 529.462 309.601ZM529.462 281.091C526.803 281.087 524.203 281.871 521.99 283.346C519.777 284.821 518.051 286.919 517.031 289.375C516.011 291.831 515.741 294.535 516.257 297.144C516.773 299.753 518.052 302.151 519.93 304.033C521.809 305.916 524.203 307.198 526.81 307.719C529.418 308.239 532.121 307.974 534.578 306.957C537.034 305.94 539.134 304.217 540.612 302.006C542.09 299.795 542.878 297.195 542.878 294.535C542.89 292.763 542.552 291.006 541.883 289.365C541.215 287.724 540.229 286.231 538.983 284.972C537.736 283.713 536.254 282.712 534.62 282.027C532.986 281.343 531.233 280.987 529.462 280.981V281.091Z" fill="#161119"/>
<path d="M514.177 342.857C517.082 342.577 519.259 340.512 519.04 338.245C518.822 335.979 516.29 334.369 513.386 334.649C510.481 334.929 508.304 336.994 508.523 339.26C508.741 341.527 511.273 343.137 514.177 342.857Z" fill="#161119"/>
<path d="M523.346 339.537C520.971 339.769 518.583 339.835 516.199 339.735V337.542C543.733 338.638 564.888 316.4 565.107 316.159L566.751 317.716C566.642 317.869 548.337 337.125 523.346 339.537Z" fill="#161119"/>
<path d="M475.709 276.551C477.901 261.199 485.99 244.137 499.231 235.408C511.091 227.601 526.963 227.097 540.028 232.119C551.296 236.505 558.75 246.067 562.432 257.296C565.545 266.858 565.962 276.683 566.707 286.596C566.948 289.885 572.078 289.907 571.837 286.596C571.135 277.143 570.763 267.735 568.176 258.546C564.8 246.571 557.895 235.584 546.714 229.575C539.845 226.011 532.267 224.027 524.533 223.769C516.8 223.511 509.106 224.985 502.015 228.084C490.857 233.215 482.68 243.194 477.484 254.116C474.198 260.806 471.916 267.945 470.71 275.301C470.25 278.547 475.095 279.929 475.665 276.661L475.709 276.551Z" fill="#00B7D8"/>
<path d="M566.488 324.953C576.198 324.953 584.069 315.164 584.069 303.088C584.069 291.012 576.198 281.223 566.488 281.223C556.778 281.223 548.906 291.012 548.906 303.088C548.906 315.164 556.778 324.953 566.488 324.953Z" fill="#00B7D8"/>
<path d="M569.251 323.857C578.476 323.857 585.955 314.558 585.955 303.088C585.955 291.618 578.476 282.319 569.251 282.319C560.025 282.319 552.546 291.618 552.546 303.088C552.546 314.558 560.025 323.857 569.251 323.857Z" fill="#04A2BC"/>
<path opacity="0.07" d="M694.71 133.977H608.556C602.793 133.977 598.121 138.651 598.121 144.416V195.275C598.121 201.04 602.793 205.714 608.556 205.714H694.71C700.473 205.714 705.145 201.04 705.145 195.275V144.416C705.145 138.651 700.473 133.977 694.71 133.977Z" fill="#26476D"/>
<path d="M692.189 131.565H606.036C600.272 131.565 595.601 136.238 595.601 142.004V192.862C595.601 198.628 600.272 203.301 606.036 203.301H692.189C697.952 203.301 702.624 198.628 702.624 192.862V142.004C702.624 136.238 697.952 131.565 692.189 131.565Z" fill="white"/>
<path d="M656.369 144.745C658.45 145.715 660.231 147.231 661.52 149.131C662.764 150.936 663.422 153.08 663.406 155.272C663.418 156.777 663.128 158.269 662.551 159.658C662.01 160.871 661.269 161.983 660.358 162.948C659.333 164.051 658.234 165.084 657.07 166.04C655.564 167.286 654.203 168.699 653.015 170.251C652.086 171.595 651.617 173.203 651.677 174.835V175.712C651.677 175.94 651.632 176.165 651.545 176.375C651.458 176.585 651.331 176.776 651.17 176.937C651.009 177.098 650.818 177.226 650.608 177.313C650.398 177.4 650.173 177.445 649.945 177.445H647.6C647.375 177.446 647.153 177.402 646.945 177.316C646.738 177.229 646.551 177.101 646.394 176.94C646.229 176.782 646.099 176.591 646.013 176.379C645.926 176.168 645.884 175.941 645.89 175.712V174.374C645.869 172.867 646.168 171.372 646.767 169.988C647.324 168.785 648.064 167.676 648.959 166.698C649.792 165.821 650.91 164.724 652.313 163.452C653.78 162.257 655.111 160.904 656.281 159.417C657.169 158.212 657.631 156.747 657.596 155.25C657.619 154.293 657.397 153.345 656.952 152.497C656.507 151.649 655.854 150.929 655.053 150.403C653.248 149.191 651.111 148.57 648.937 148.627C646.894 148.555 644.884 149.156 643.215 150.338C641.623 151.667 640.532 153.501 640.124 155.535C640.053 155.927 639.848 156.281 639.544 156.537C639.239 156.793 638.856 156.935 638.458 156.939H635.74C635.553 156.939 635.367 156.902 635.194 156.831C635.021 156.759 634.864 156.655 634.731 156.522C634.588 156.405 634.478 156.252 634.413 156.079C634.347 155.906 634.329 155.718 634.359 155.535C634.5 153.462 635.139 151.453 636.222 149.68C637.435 147.696 639.152 146.069 641.198 144.965C643.61 143.679 646.315 143.044 649.047 143.122C651.577 143.115 654.078 143.669 656.369 144.745ZM651.984 187.884C651.823 188.044 651.631 188.172 651.421 188.258C651.21 188.345 650.984 188.389 650.757 188.388H647.139C646.915 188.39 646.692 188.346 646.485 188.259C646.278 188.172 646.09 188.045 645.934 187.884C645.771 187.729 645.642 187.541 645.555 187.334C645.468 187.126 645.425 186.903 645.429 186.678V182.971C645.425 182.746 645.468 182.523 645.555 182.315C645.642 182.107 645.771 181.92 645.934 181.765C646.09 181.604 646.278 181.476 646.485 181.39C646.692 181.303 646.915 181.259 647.139 181.261H650.757C651.212 181.261 651.649 181.44 651.973 181.76C652.298 182.08 652.483 182.515 652.488 182.971V186.612C652.476 186.842 652.418 187.068 652.316 187.275C652.214 187.483 652.071 187.667 651.896 187.818L651.984 187.884Z" fill="#F58220"/>
<path opacity="0.07" d="M476.849 66.9118H391.528C388.64 66.9407 385.88 68.1087 383.848 70.1621C381.816 72.2154 380.677 74.988 380.677 77.8774V127.88C380.677 130.77 381.816 133.542 383.848 135.596C385.88 137.649 388.64 138.817 391.528 138.846H452.033L474.963 155.119V138.67H476.849C479.737 138.641 482.497 137.473 484.529 135.42C486.561 133.367 487.7 130.594 487.7 127.705V77.7896C487.677 74.9155 486.527 72.1653 484.498 70.1308C482.468 68.0964 479.722 66.9405 476.849 66.9118Z" fill="#26476D"/>
<path d="M474.284 64.5871H388.963C386.056 64.5871 383.268 65.7424 381.212 67.7988C379.157 69.8553 378.002 72.6444 378.002 75.5526V125.556C378.031 128.445 379.198 131.206 381.251 133.239C383.303 135.271 386.075 136.412 388.963 136.411H449.402L472.311 152.706V136.324H474.196C477.084 136.324 479.856 135.184 481.908 133.151C483.961 131.118 485.128 128.357 485.157 125.468V75.4649C485.134 72.587 483.981 69.8335 481.947 67.7985C479.913 65.7634 477.16 64.61 474.284 64.5871Z" fill="white"/>
<path d="M473.933 83.1189H389.335C389.109 83.1189 388.891 83.209 388.731 83.3694C388.571 83.5298 388.48 83.7473 388.48 83.9742C388.48 84.201 388.571 84.4186 388.731 84.579C388.891 84.7394 389.109 84.8295 389.335 84.8295H473.933C474.159 84.8295 474.377 84.7394 474.537 84.579C474.697 84.4186 474.788 84.201 474.788 83.9742C474.788 83.7473 474.697 83.5298 474.537 83.3694C474.377 83.209 474.159 83.1189 473.933 83.1189Z" fill="#F58220"/>
<path d="M473.933 94.3037H389.335C389.109 94.3037 388.891 94.3939 388.731 94.5543C388.571 94.7147 388.48 94.9322 388.48 95.1591C388.48 95.3859 388.571 95.6035 388.731 95.7639C388.891 95.9243 389.109 96.0144 389.335 96.0144H473.933C474.159 96.0144 474.377 95.9243 474.537 95.7639C474.697 95.6035 474.788 95.3859 474.788 95.1591C474.788 94.9322 474.697 94.7147 474.537 94.5543C474.377 94.3939 474.159 94.3037 473.933 94.3037Z" fill="#F58220"/>
<path d="M448.657 105.423H389.335C389.109 105.423 388.891 105.513 388.731 105.673C388.571 105.834 388.48 106.051 388.48 106.278C388.48 106.505 388.571 106.723 388.731 106.883C388.891 107.043 389.109 107.133 389.335 107.133H448.657C448.883 107.133 449.101 107.043 449.261 106.883C449.421 106.723 449.512 106.505 449.512 106.278C449.512 106.051 449.421 105.834 449.261 105.673C449.101 105.513 448.883 105.423 448.657 105.423Z" fill="#F58220"/>
<path d="M448.657 116.564H389.336C389.13 116.597 388.943 116.702 388.807 116.861C388.672 117.02 388.598 117.221 388.598 117.43C388.598 117.639 388.672 117.841 388.807 117.999C388.943 118.158 389.13 118.263 389.336 118.296H448.657C448.863 118.263 449.051 118.158 449.186 117.999C449.322 117.841 449.396 117.639 449.396 117.43C449.396 117.221 449.322 117.02 449.186 116.861C449.051 116.702 448.863 116.597 448.657 116.564Z" fill="#F58220"/>
<path opacity="0.07" d="M431.163 156.062H375.744C373.872 156.062 372.077 156.806 370.753 158.13C369.429 159.454 368.686 161.251 368.686 163.124V195.604C368.686 197.476 369.429 199.273 370.753 200.597C372.077 201.921 373.872 202.665 375.744 202.665H415.051L429.936 213.236V202.665H431.163C433.032 202.66 434.822 201.913 436.141 200.589C437.46 199.266 438.2 197.473 438.2 195.604V163.124C438.2 161.254 437.46 159.462 436.141 158.138C434.822 156.814 433.032 156.068 431.163 156.062Z" fill="#26476D"/>
<path d="M429.497 154.548H374.078C372.206 154.548 370.411 155.293 369.087 156.617C367.763 157.941 367.02 159.737 367.02 161.61V194.09C367.02 195.963 367.763 197.759 369.087 199.084C370.411 200.408 372.206 201.152 374.078 201.152H413.385L428.27 211.723V201.152H429.497C431.366 201.146 433.156 200.4 434.475 199.076C435.794 197.752 436.534 195.959 436.534 194.09V161.61C436.534 159.741 435.794 157.948 434.475 156.625C433.156 155.301 431.366 154.554 429.497 154.548Z" fill="white"/>
<path d="M429.256 166.676H374.298C374.168 166.702 374.052 166.772 373.968 166.874C373.885 166.976 373.839 167.104 373.839 167.236C373.839 167.368 373.885 167.495 373.968 167.597C374.052 167.699 374.168 167.769 374.298 167.795H429.256C429.386 167.769 429.502 167.699 429.586 167.597C429.669 167.495 429.715 167.368 429.715 167.236C429.715 167.104 429.669 166.976 429.586 166.874C429.502 166.772 429.386 166.702 429.256 166.676Z" fill="#F58220"/>
<path d="M429.256 173.826H374.298C374.168 173.852 374.052 173.921 373.968 174.023C373.885 174.125 373.839 174.253 373.839 174.385C373.839 174.517 373.885 174.645 373.968 174.747C374.052 174.849 374.168 174.919 374.298 174.944H429.256C429.386 174.919 429.502 174.849 429.586 174.747C429.669 174.645 429.715 174.517 429.715 174.385C429.715 174.253 429.669 174.125 429.586 174.023C429.502 173.921 429.386 173.852 429.256 173.826Z" fill="#F58220"/>
<path d="M412.837 181.063H374.298C374.168 181.089 374.052 181.159 373.968 181.261C373.885 181.363 373.839 181.491 373.839 181.622C373.839 181.754 373.885 181.882 373.968 181.984C374.052 182.086 374.168 182.156 374.298 182.182H412.837C412.966 182.156 413.082 182.086 413.166 181.984C413.25 181.882 413.295 181.754 413.295 181.622C413.295 181.491 413.25 181.363 413.166 181.261C413.082 181.159 412.966 181.089 412.837 181.063Z" fill="#F58220"/>
<path d="M412.836 188.322H374.297C374.152 188.322 374.012 188.38 373.91 188.483C373.807 188.586 373.749 188.725 373.749 188.871C373.749 189.016 373.807 189.156 373.91 189.258C374.012 189.361 374.152 189.419 374.297 189.419H412.836C412.981 189.419 413.121 189.361 413.224 189.258C413.326 189.156 413.384 189.016 413.384 188.871C413.384 188.725 413.326 188.586 413.224 188.483C413.121 188.38 412.981 188.322 412.836 188.322Z" fill="#F58220"/>
<path opacity="0.07" d="M322.255 236.264H236.101C230.338 236.264 225.666 240.938 225.666 246.703V297.561C225.666 303.327 230.338 308 236.101 308H322.255C328.018 308 332.689 303.327 332.689 297.561V246.703C332.689 240.938 328.018 236.264 322.255 236.264Z" fill="#26476D"/>
<path d="M319.076 233.413H232.922C227.159 233.413 222.487 238.087 222.487 243.852V294.71C222.487 300.476 227.159 305.149 232.922 305.149H319.076C324.839 305.149 329.511 300.476 329.511 294.71V243.852C329.511 238.087 324.839 233.413 319.076 233.413Z" fill="white"/>
<path d="M266.222 250.366C266.989 258.48 275.648 257.186 275.648 257.186C280.953 257.976 280.164 269.555 280.164 269.555C280.164 269.555 279.594 281.157 274.245 281.31C274.245 281.31 265.783 279.117 264.095 287.012C262.407 294.908 267.186 299.074 275.056 298.526C275.056 298.526 286.017 297.474 287.53 269.731C288.429 241.637 278.454 240.189 278.454 240.189C270.716 238.742 265.476 242.229 266.222 250.366Z" fill="#F58220"/>
<path d="M611.626 586.547C637.275 573.981 655.032 550.054 668.733 525.447C693.593 480.796 708.587 429.126 700.257 378.991C698.635 369.144 695.061 358.157 685.723 354.121C681.194 352.326 676.188 352.14 671.539 353.595C662.397 356.249 655.317 363.64 651.064 371.951C646.811 380.263 644.969 389.496 643.281 398.707C631.202 463.558 622.675 529.548 599.547 591.482" fill="#8DC441"/>
<path opacity="0.11" d="M607.065 587.6C626.927 578.367 649.66 550.054 660.687 531.149C680.702 496.849 695.543 461.255 690.413 421.911C689.405 414.213 686.949 405.528 679.912 402.173C676.516 400.667 672.698 400.403 669.127 401.427C665.657 402.544 662.448 404.349 659.691 406.735C656.934 409.12 654.686 412.036 653.08 415.309C649.931 421.869 647.717 428.838 646.503 436.012C635.739 486.454 627.672 537.707 608.556 585.517" fill="#10245D"/>
<path d="M676.866 381.141C674.674 396.646 672.482 412.151 669.851 427.591C667.22 443.03 664.085 458.141 660.183 473.207C656.633 487.12 652.129 500.772 646.701 514.065C641.233 527.229 634.837 539.989 627.563 552.247C620.443 564.3 612.38 575.769 603.449 586.547C602.353 587.863 601.257 589.157 600.139 590.451C599.898 590.714 600.292 591.109 600.533 590.846C609.65 580.336 617.905 569.107 625.218 557.269C640.324 532.994 651.78 506.629 659.219 479.019C663.362 463.909 666.65 448.557 669.434 433.139C672.218 417.722 674.52 402.173 676.669 386.623C676.932 384.803 677.173 382.961 677.436 381.141C677.436 380.79 676.91 380.79 676.866 381.141Z" fill="white"/>
<path d="M621.534 583.762C641.207 588.297 661.214 591.23 681.359 592.535C714.243 594.443 754.491 593.236 780.579 573.169C789.041 566.59 796.428 555.997 792.965 545.887C790.772 539.483 784.547 535.075 777.992 533.343C771.339 531.951 764.485 531.81 757.78 532.926C708.93 538.599 662.182 556.027 621.534 583.718" fill="#8DC441"/>
<path opacity="0.11" d="M628.944 582.183C644.227 585.497 659.743 587.624 675.353 588.543C700.849 589.903 732.11 588.96 752.387 574.2C758.964 569.397 764.708 561.568 762.033 554.155C760.345 549.44 755.457 546.216 750.436 544.966C745.269 543.95 739.963 543.853 734.762 544.681C697.07 548.846 660.852 561.681 628.944 582.183Z" fill="#10245D"/>
<path d="M766.022 555.12L738.598 561.283C729.259 563.374 719.913 565.413 710.56 567.402C701.206 569.39 691.758 571.327 682.214 573.213C672.817 575.055 663.391 576.788 653.935 578.411C644.618 579.99 635.279 581.459 625.918 582.797L622.521 583.236C622.126 583.236 622.126 583.938 622.521 583.894C631.845 582.636 641.147 581.233 650.427 579.683C659.708 578.133 669.105 576.437 678.619 574.595C688.089 572.775 697.538 570.845 706.986 568.871C716.435 566.897 725.817 564.814 735.222 562.73C744.626 560.647 753.658 558.607 762.865 556.524L766.198 555.778C766.614 555.778 766.417 555.076 766.022 555.164V555.12Z" fill="white"/>
<path d="M613.687 581.174C650.954 579.222 692.606 557.05 722.464 534.658C742.194 519.921 761.551 504.262 776.063 484.414C787.99 468.089 796.273 449.391 800.353 429.586C803.005 416.647 802.545 400.594 791.409 393.532C788.299 391.77 784.834 390.725 781.269 390.475C777.704 390.224 774.127 390.774 770.802 392.084C764.176 394.762 758.17 398.77 753.155 403.861C738.313 417.744 726.848 434.828 715.383 451.561C685.284 495.073 647.929 540.821 613.687 581.152" fill="#8DC441"/>
<path opacity="0.11" d="M623.749 575.823C652.555 574.398 684.67 558.081 707.754 541.567C722.946 530.711 737.941 519.175 749.165 504.569C758.321 492.661 764.73 478.872 767.93 464.194C769.969 454.676 769.618 442.855 761.003 437.657C758.579 436.357 755.905 435.589 753.161 435.403C750.417 435.218 747.664 435.62 745.088 436.582C739.999 438.56 735.362 441.544 731.452 445.355C720.009 455.575 711.218 468.163 702.296 480.445C679.058 512.508 650.187 546.238 623.749 575.889" fill="#10245D"/>
<path d="M776.896 424.674L744.123 464.742C734.411 476.607 724.787 488.515 714.879 500.205C705.781 510.973 696.398 521.522 686.38 531.478C676.557 541.426 665.941 550.558 654.637 558.783C643.411 566.963 631.227 573.739 618.356 578.959C616.778 579.595 615.177 580.187 613.577 580.78C613.182 580.911 613.358 581.525 613.752 581.394C626.735 576.631 639.077 570.273 650.494 562.467C661.948 554.576 672.714 545.728 682.675 536.018C692.891 526.171 702.405 515.666 711.7 504.92C721.433 493.581 730.86 481.936 740.33 470.356L773.213 430.157L777.335 425.134C777.598 424.806 777.137 424.345 776.874 424.674H776.896Z" fill="white"/>
<g opacity="0.38">
<path opacity="0.38" d="M733.994 543.606C741.388 541.051 748.307 537.287 754.469 532.465C757.802 530.031 761.046 527.487 764.334 524.965C767.623 522.443 771.481 519.438 774.988 516.609C781.697 511.258 788.273 505.724 794.718 500.007C801.163 494.291 807.448 488.398 813.571 482.331C819.688 476.278 825.672 470.049 831.46 463.689L833.652 461.365C834.156 460.816 833.345 459.983 832.841 460.553C827.119 466.891 821.244 473.12 815.194 479.151C809.143 485.182 802.961 491.103 796.604 496.827C790.246 502.551 783.779 508.122 777.137 513.517C770.494 518.912 763.436 524.482 756.464 529.636C750.413 534.55 743.687 538.568 736.493 541.567C735.616 541.896 734.718 542.203 733.819 542.488C733.671 542.529 733.545 542.626 733.469 542.76C733.392 542.894 733.373 543.052 733.413 543.201C733.454 543.349 733.552 543.475 733.686 543.551C733.819 543.627 733.977 543.647 734.126 543.606H733.994Z" fill="#81C1EB"/>
<path opacity="0.38" d="M772.358 518.013C769.76 515.943 767.641 513.334 766.15 510.366C764.659 507.397 763.83 504.139 763.721 500.819C763.721 498.275 764.378 495.248 766.746 494.239C767.534 493.986 768.375 493.946 769.184 494.123C769.992 494.301 770.739 494.689 771.349 495.248C772.548 496.391 773.412 497.839 773.849 499.437C775.602 504.986 774.506 510.995 773.41 516.697" fill="#81C1EB"/>
<path opacity="0.38" d="M752.847 533.606C752.671 533.935 752.167 533.606 751.882 533.43C749.482 531.128 747.67 528.283 746.598 525.135C745.526 521.986 745.226 518.626 745.722 515.337C745.873 514.075 746.284 512.858 746.928 511.762C748.086 510.173 749.699 508.972 751.553 508.319C751.962 508.096 752.427 507.997 752.891 508.034C753.479 508.186 753.983 508.564 754.294 509.087C756.767 512.588 757.803 516.906 757.187 521.149C756.57 525.346 755.076 529.366 752.803 532.948" fill="#81C1EB"/>
<path opacity="0.38" d="M751.686 533.54C754.498 532.4 757.572 532.066 760.564 532.575C763.565 533.072 766.505 533.888 769.333 535.009C771.484 535.608 773.461 536.713 775.098 538.233C775.904 539.004 776.432 540.021 776.598 541.124C776.765 542.228 776.561 543.355 776.019 544.33C775.29 545.144 774.375 545.768 773.351 546.15C772.328 546.532 771.227 546.66 770.144 546.523C765.864 546.528 761.677 545.269 758.109 542.904C756.342 541.711 754.865 540.135 753.787 538.294C752.71 536.453 752.059 534.394 751.883 532.268" fill="#81C1EB"/>
</g>
<g opacity="0.38">
<path opacity="0.38" d="M697.823 482.243C702.387 475.883 705.855 468.804 708.083 461.299C709.398 457.373 710.582 453.426 711.788 449.478C713.103 445.092 714.418 440.837 715.646 436.495C718.014 428.249 720.155 419.937 722.069 411.559C723.984 403.181 725.701 394.738 727.221 386.229C728.682 377.734 729.946 369.21 731.013 360.657C731.145 359.626 731.276 358.574 731.386 357.543C731.496 356.512 730.334 356.6 730.246 357.345C729.259 365.833 728.054 374.32 726.651 382.742C725.248 391.163 723.582 399.585 721.718 407.919C719.855 416.252 717.794 424.564 715.492 432.81C713.191 441.056 710.626 449.588 708.083 457.921C705.985 465.431 702.826 472.602 698.7 479.217C698.174 480.006 697.626 480.774 697.034 481.519C696.442 482.265 697.473 482.835 697.933 482.243H697.823Z" fill="#81C1EB"/>
<path opacity="0.38" d="M730.004 361.183C728.754 359.029 728.04 356.605 727.922 354.117C727.804 351.628 728.285 349.148 729.325 346.884C730.18 345.086 731.802 343.266 733.709 343.551C734.426 343.707 735.081 344.071 735.592 344.598C736.103 345.124 736.447 345.79 736.581 346.511C736.829 347.979 736.716 349.484 736.252 350.898C735.135 355.119 733.207 359.082 730.574 362.565" fill="#81C1EB"/>
<path opacity="0.38" d="M729.566 368.728C728.313 368.666 727.085 368.352 725.955 367.806C724.825 367.26 723.816 366.492 722.989 365.548C721.685 364.382 720.652 362.945 719.964 361.337C719.628 360.526 719.484 359.649 719.545 358.773C719.606 357.898 719.869 357.049 720.315 356.293C720.453 356.063 720.65 355.873 720.885 355.744C721.122 355.653 721.377 355.615 721.63 355.635C722.918 355.797 724.091 356.459 724.897 357.477C725.689 358.492 726.304 359.634 726.716 360.854C727.789 363.584 728.561 366.423 729.018 369.32" fill="#81C1EB"/>
<path opacity="0.38" d="M726.716 383.246C725.83 383.454 724.907 383.454 724.02 383.246C721.546 383.048 719.199 382.073 717.312 380.461C716.493 379.512 715.875 378.408 715.492 377.215C715.096 376.32 714.882 375.354 714.864 374.375C714.845 373.396 715.021 372.423 715.383 371.513C715.656 370.922 716.13 370.448 716.72 370.175C717.087 370.062 717.474 370.034 717.853 370.09C718.233 370.147 718.595 370.289 718.912 370.504C719.556 370.965 720.113 371.537 720.556 372.193C723.124 375.567 725.171 379.308 726.629 383.29" fill="#81C1EB"/>
<path opacity="0.38" d="M724.107 400.177C724.107 400.462 723.669 400.528 723.362 400.506C720.635 400.466 717.956 399.79 715.536 398.532C713.104 397.246 711.197 395.152 710.143 392.611C709.882 392.05 709.738 391.442 709.719 390.824C709.7 390.205 709.807 389.59 710.034 389.014C710.45 388.34 711.068 387.814 711.8 387.51C712.531 387.207 713.34 387.143 714.111 387.325C715.658 387.733 717.037 388.615 718.057 389.847C720.789 393.129 722.899 396.883 724.283 400.923" fill="#81C1EB"/>
<path opacity="0.38" d="M720.381 418.029C719.127 418.295 717.825 418.22 716.61 417.809C713.531 417.162 710.629 415.852 708.105 413.972C706.856 413.02 705.848 411.787 705.162 410.374C704.477 408.961 704.133 407.406 704.159 405.835C704.105 405.288 704.194 404.737 704.417 404.234C704.64 403.732 704.99 403.296 705.431 402.969C705.873 402.642 706.392 402.435 706.937 402.369C707.483 402.302 708.036 402.378 708.543 402.589C712.292 403.642 714.813 407.085 716.742 410.463C717.947 412.593 719.03 414.789 719.986 417.042" fill="#81C1EB"/>
<path opacity="0.38" d="M714.309 439.17C710.992 438.986 707.754 438.082 704.821 436.522C701.887 434.961 699.328 432.782 697.319 430.135C695.784 428.095 694.623 425.222 696.004 423.095C696.502 422.421 697.171 421.892 697.942 421.565C698.713 421.237 699.558 421.122 700.388 421.231C702.002 421.49 703.517 422.179 704.773 423.226C709.398 426.714 711.985 432.24 714.396 437.547" fill="#81C1EB"/>
<path opacity="0.38" d="M727.528 383.509C729.982 380.11 733.338 377.466 737.217 375.877C737.627 375.581 738.102 375.389 738.602 375.316C739.102 375.244 739.612 375.293 740.089 375.461C740.455 375.734 740.736 376.106 740.899 376.533C741.062 376.96 741.1 377.425 741.01 377.873C740.827 379.445 740.041 380.884 738.817 381.886C737.528 382.892 736.03 383.596 734.433 383.948C732.015 384.63 729.461 384.668 727.023 384.058" fill="#81C1EB"/>
<path opacity="0.38" d="M729.522 368.289C731.99 364.894 735.352 362.252 739.234 360.657C739.642 360.358 740.118 360.165 740.62 360.096C741.121 360.027 741.632 360.084 742.106 360.262C742.472 360.53 742.754 360.898 742.917 361.322C743.08 361.746 743.118 362.208 743.026 362.653C742.817 364.248 741.991 365.696 740.725 366.688C739.459 367.661 738.002 368.356 736.45 368.728C734.034 369.417 731.479 369.463 729.04 368.859" fill="#81C1EB"/>
<path opacity="0.38" d="M724.086 399.936C725.389 397.607 727.205 395.607 729.397 394.087C731.589 392.567 734.099 391.567 736.735 391.163C737.306 391.015 737.902 390.989 738.484 391.087C739.066 391.186 739.62 391.406 740.111 391.733C740.485 392.082 740.763 392.522 740.917 393.01C741.07 393.498 741.095 394.018 740.988 394.519C740.748 395.52 740.24 396.437 739.519 397.172C737.864 398.89 735.735 400.073 733.403 400.572C731.092 401.069 728.72 401.217 726.366 401.01C725.421 401.055 724.491 400.768 723.735 400.199" fill="#81C1EB"/>
<path opacity="0.38" d="M720.052 417.283C722.902 413.27 727.637 411.077 732.24 409.344C733.083 408.901 734.007 408.631 734.956 408.552C735.905 408.473 736.86 408.586 737.765 408.884C738.782 409.504 739.523 410.491 739.837 411.64C740.15 412.79 740.013 414.016 739.453 415.068C738.849 416.09 738.044 416.978 737.087 417.679C736.13 418.38 735.04 418.88 733.885 419.147C729.494 420.276 724.85 419.858 720.731 417.963" fill="#81C1EB"/>
<path opacity="0.38" d="M714.352 437.767C716.724 434.819 719.997 432.731 723.669 431.823C727.325 430.942 731.067 430.464 734.827 430.398C735.719 430.219 736.64 430.245 737.521 430.473C738.402 430.7 739.22 431.125 739.913 431.714C740.282 432.219 740.523 432.806 740.615 433.425C740.706 434.044 740.646 434.676 740.439 435.267C739.968 436.44 739.215 437.48 738.247 438.293C735.781 440.386 732.817 441.809 729.642 442.423C726.466 443.038 723.186 442.824 720.118 441.802C717.426 441.16 715.076 439.522 713.541 437.219" fill="#81C1EB"/>
<path opacity="0.38" d="M707.425 463.163C707.425 463.536 706.921 463.645 706.548 463.602C703.257 463.11 700.131 461.839 697.431 459.893C694.731 457.947 692.536 455.384 691.027 452.417C690.423 451.298 690.058 450.066 689.953 448.798C689.974 446.826 690.593 444.906 691.729 443.293C691.834 443.046 691.989 442.823 692.186 442.639C692.382 442.455 692.614 442.314 692.868 442.225C693.122 442.136 693.392 442.101 693.66 442.123C693.928 442.145 694.189 442.222 694.425 442.35C698.462 443.773 701.798 446.694 703.742 450.509C705.661 454.3 706.753 458.457 706.943 462.702" fill="#81C1EB"/>
<path opacity="0.38" d="M706.439 463.799C708.085 461.246 710.397 459.191 713.125 457.856C715.844 456.542 718.696 455.52 721.631 454.807C723.736 454.056 725.989 453.808 728.207 454.084C729.319 454.229 730.352 454.738 731.145 455.531C731.938 456.324 732.446 457.357 732.592 458.47C732.446 459.548 732.044 460.575 731.418 461.464C730.792 462.353 729.962 463.079 728.996 463.58C725.504 466.065 721.355 467.461 717.071 467.593C714.94 467.645 712.824 467.217 710.882 466.34C708.939 465.463 707.218 464.16 705.847 462.527" fill="#81C1EB"/>
</g>
<g opacity="0.38">
<path opacity="0.38" d="M459.968 496.367C458.537 488.659 455.825 481.246 451.945 474.436C450.037 470.773 447.999 467.176 445.982 463.47C443.79 459.522 441.597 455.597 439.274 451.693C434.889 444.28 430.373 436.97 425.726 429.762C421.013 422.547 416.08 415.463 410.994 408.533C405.908 401.602 400.625 394.76 395.167 388.093L393.172 385.658C392.711 385.088 391.769 385.658 392.251 386.36C397.702 392.94 402.978 399.665 408.079 406.537C413.179 413.409 418.104 420.397 422.854 427.503C427.589 434.638 432.142 441.875 436.512 449.215C440.896 456.737 445.28 464.347 449.446 472.023C453.37 478.744 456.322 485.988 458.214 493.538C458.412 494.459 458.587 495.38 458.719 496.323C458.85 497.266 459.99 496.915 459.859 496.191L459.968 496.367Z" fill="#81C1EB"/>
<path opacity="0.38" d="M394.86 389.365C392.438 388.781 390.193 387.621 388.315 385.983C386.437 384.345 384.982 382.277 384.074 379.956C383.603 379.079 383.413 378.078 383.531 377.089C383.649 376.1 384.068 375.172 384.732 374.43C385.346 374.022 386.067 373.805 386.804 373.805C387.54 373.805 388.261 374.022 388.875 374.43C390.091 375.258 391.084 376.373 391.769 377.676C394.047 381.402 395.58 385.536 396.285 389.847" fill="#81C1EB"/>
<path opacity="0.38" d="M399.967 394.891C399.064 395.742 397.999 396.402 396.835 396.832C395.671 397.261 394.432 397.452 393.193 397.392C391.451 397.529 389.7 397.282 388.064 396.668C387.244 396.351 386.51 395.847 385.92 395.196C385.33 394.545 384.901 393.765 384.666 392.918C384.6 392.666 384.6 392.402 384.666 392.15C384.752 391.902 384.903 391.682 385.104 391.514C386.118 390.702 387.407 390.317 388.699 390.439C389.973 390.579 391.216 390.92 392.382 391.448C395.097 392.572 397.684 393.984 400.099 395.659" fill="#81C1EB"/>
<path opacity="0.38" d="M408.495 406.997C408.028 407.782 407.373 408.438 406.588 408.905C404.757 410.548 402.457 411.576 400.012 411.844C398.762 411.772 397.54 411.452 396.416 410.901C395.497 410.569 394.653 410.057 393.934 409.394C393.215 408.731 392.635 407.931 392.229 407.041C392 406.433 392 405.763 392.229 405.155C392.399 404.795 392.65 404.479 392.961 404.232C393.273 403.985 393.638 403.813 394.027 403.73C394.81 403.586 395.612 403.586 396.394 403.73C400.608 404.185 404.727 405.288 408.605 406.997" fill="#81C1EB"/>
<path opacity="0.38" d="M418.93 420.595C419.084 420.836 418.93 421.165 418.645 421.362C416.734 423.343 414.383 424.845 411.784 425.749C409.181 426.607 406.361 426.537 403.804 425.551C403.218 425.352 402.679 425.035 402.219 424.62C401.759 424.206 401.388 423.701 401.13 423.139C400.922 422.371 400.965 421.556 401.253 420.814C401.541 420.072 402.058 419.442 402.73 419.016C404.091 418.184 405.676 417.793 407.268 417.897C411.533 418.202 415.708 419.279 419.588 421.077" fill="#81C1EB"/>
<path opacity="0.38" d="M429.211 435.64C428.539 436.729 427.585 437.616 426.449 438.205C423.862 439.99 420.913 441.181 417.812 441.692C416.26 441.94 414.671 441.819 413.175 441.339C411.678 440.859 410.315 440.034 409.197 438.929C408.742 438.496 408.401 437.957 408.206 437.36C408.011 436.762 407.967 436.126 408.079 435.508C408.411 434.606 409.079 433.868 409.942 433.446C413.296 431.473 417.527 432.021 421.298 432.964C423.661 433.562 425.989 434.294 428.269 435.157" fill="#81C1EB"/>
<path opacity="0.38" d="M440.283 454.654C437.853 456.922 434.96 458.636 431.803 459.677C428.647 460.719 425.302 461.062 422 460.685C419.479 460.356 416.607 459.215 416.015 456.737C415.881 455.924 415.965 455.09 416.258 454.32C416.55 453.549 417.041 452.87 417.681 452.351C418.988 451.328 420.55 450.684 422.197 450.487C427.941 449.566 433.706 451.518 439.209 453.447" fill="#81C1EB"/>
<path opacity="0.38" d="M409.24 406.603C408.493 402.476 408.91 398.223 410.446 394.321C410.731 393.334 411.169 392.128 412.134 391.953C412.585 391.879 413.047 391.932 413.469 392.106C413.891 392.28 414.256 392.569 414.524 392.94C415.483 394.191 415.944 395.754 415.817 397.326C415.645 398.876 415.144 400.371 414.348 401.712C413.18 403.941 411.44 405.818 409.306 407.151" fill="#81C1EB"/>
<path opacity="0.38" d="M399.639 394.606C398.903 390.48 399.32 386.23 400.845 382.325C401.152 381.36 401.59 380.263 402.555 379.978C403.002 379.901 403.463 379.952 403.882 380.127C404.301 380.302 404.662 380.593 404.922 380.965C405.903 382.206 406.374 383.775 406.238 385.351C406.05 386.901 405.543 388.395 404.747 389.738C403.581 391.961 401.849 393.837 399.727 395.177" fill="#81C1EB"/>
<path opacity="0.38" d="M418.712 420.441C417.926 417.89 417.733 415.192 418.147 412.555C418.561 409.917 419.571 407.409 421.101 405.221C421.392 404.71 421.786 404.265 422.257 403.914C422.729 403.563 423.268 403.313 423.841 403.181C424.354 403.15 424.867 403.253 425.328 403.48C425.789 403.707 426.183 404.05 426.472 404.475C427.03 405.34 427.341 406.341 427.371 407.37C427.458 409.748 426.84 412.098 425.595 414.125C424.359 416.139 422.83 417.958 421.057 419.52C420.421 420.222 419.575 420.699 418.646 420.88" fill="#81C1EB"/>
<path opacity="0.38" d="M428.467 435.354C427.546 430.508 429.212 425.595 431.141 421.055C431.404 420.127 431.85 419.261 432.452 418.508C433.055 417.755 433.802 417.129 434.649 416.669C435.799 416.368 437.021 416.516 438.067 417.082C439.113 417.648 439.905 418.59 440.283 419.718C440.606 420.863 440.693 422.062 440.539 423.242C440.384 424.422 439.991 425.559 439.384 426.582C437.153 430.514 433.651 433.569 429.453 435.245" fill="#81C1EB"/>
<path opacity="0.38" d="M439.295 453.645C438.811 449.891 439.582 446.081 441.488 442.811C443.339 439.565 445.545 436.535 448.064 433.775C449.27 432.394 450.739 430.88 452.449 430.99C453.072 431.069 453.666 431.3 454.179 431.663C454.691 432.027 455.106 432.511 455.386 433.074C455.913 434.205 456.161 435.445 456.11 436.692C455.912 439.923 454.886 443.048 453.132 445.768C451.377 448.487 448.952 450.709 446.091 452.219C443.759 453.735 440.938 454.308 438.199 453.82" fill="#81C1EB"/>
<path opacity="0.38" d="M452.844 476.234C453.129 476.453 452.844 476.914 452.537 477.155C449.912 479.197 446.836 480.578 443.566 481.181C440.296 481.784 436.93 481.591 433.75 480.62C432.517 480.292 431.367 479.71 430.374 478.909C428.977 477.525 428.03 475.752 427.655 473.821C427.525 473.378 427.525 472.906 427.655 472.462C427.891 471.897 428.34 471.447 428.905 471.212C432.726 469.277 437.145 468.884 441.247 470.115C445.293 471.365 449.029 473.458 452.208 476.256" fill="#81C1EB"/>
<path opacity="0.38" d="M452.603 477.374C451.897 474.416 452.019 471.32 452.954 468.426C453.886 465.555 455.121 462.791 456.637 460.18C457.55 458.146 458.923 456.351 460.648 454.939C461.536 454.259 462.622 453.891 463.739 453.891C464.857 453.891 465.943 454.259 466.83 454.939C467.505 455.788 467.966 456.787 468.176 457.852C468.386 458.916 468.338 460.015 468.036 461.058C467.414 465.303 465.553 469.27 462.687 472.462C461.253 474.039 459.48 475.27 457.502 476.064C455.524 476.858 453.392 477.193 451.266 477.045" fill="#81C1EB"/>
</g>
<path d="M544.347 373.552C567.365 374.517 592.29 381.47 609.148 397.194C610.66 398.429 611.842 400.019 612.59 401.822C613.131 404.618 612.794 407.514 611.626 410.112C601.655 441.721 601.121 475.555 610.091 507.464C612.437 515.754 615.44 523.934 616.251 532.509C617.062 541.084 615.352 550.383 609.433 556.633C606.807 559.263 603.744 561.415 600.38 562.993C581.943 572.314 560.306 571.963 539.677 571.108C526.941 570.582 514.094 569.924 501.862 566.437C489.629 562.949 477.901 556.436 470.491 546.084C463.082 535.733 460.407 521.96 459.53 508.802C457.338 479.041 461.35 449.193 461.898 419.345C462.073 410.572 461.898 401.8 458.5 393.729C474.218 382.764 493.005 376.184 511.749 372.522C513.673 375.042 516.15 377.087 518.99 378.497C521.829 379.908 524.954 380.647 528.124 380.658C531.209 380.834 534.292 380.283 537.125 379.049C539.958 377.814 542.462 375.932 544.434 373.552" fill="#FCC462"/>
<path d="M606.583 528.847C605.838 520.25 611.932 510.337 609.762 502.047C604.26 480.971 593.847 460.487 596.083 438.732C591.289 440.828 587.283 444.391 584.639 448.908C582.81 452.868 581.932 457.202 582.074 461.562C582.074 470.334 583.609 478.888 583.938 487.572C584.267 496.257 583.192 505.424 578.304 512.53C572.67 520.754 562.958 524.899 553.422 527.443C547.021 529.085 540.538 530.388 533.999 531.347C526.539 532.82 518.907 533.226 511.332 532.553C503.662 531.82 496.537 528.264 491.339 522.574C483.491 513.232 483.732 499.678 482.329 487.485C480.77 474.047 476.742 461.013 470.447 449.039C468.824 445.337 466.244 442.135 462.972 439.762C461.81 461.54 449.205 484.436 450.696 506.17C451.594 519.328 464.835 531.72 471.938 542.378C478.974 552.32 489.228 559.525 500.963 562.774C512.275 566.261 524.134 566.919 535.885 567.445C554.935 568.323 574.928 568.651 591.961 559.331C595.1 557.723 597.928 555.569 600.314 552.971C605.75 546.698 607.241 537.422 606.583 528.847Z" fill="#FFA748"/>
<path d="M467.992 387.808C475.117 419.432 468.979 456.759 461.087 488.186C458.741 497.529 459.245 507.771 462.577 512.53C465.91 517.289 472.026 520.381 477.484 522.903C489.282 528.344 499.862 536.109 508.592 545.734C512.667 549.608 515.788 554.375 517.711 559.66C518.645 562.309 518.918 565.147 518.505 567.926C518.093 570.705 517.007 573.34 515.344 575.604C513.504 577.562 511.262 579.098 508.772 580.105C506.281 581.112 503.602 581.567 500.919 581.437C495.571 581.141 490.274 580.229 485.135 578.718C476.402 576.673 467.516 575.345 458.566 574.748C450.827 574.222 442.957 574.222 435.504 572.029C424.836 568.733 415.808 561.526 410.228 551.852C404.738 542.171 402.437 531.006 403.651 519.943C404.388 514.065 405.597 508.256 407.268 502.573C413.626 478.888 422.394 458.163 430.418 435.003C434.192 424.92 439.278 415.379 445.544 406.625C451.331 398.422 458.018 389.496 467.905 387.808" fill="#FCC462"/>
<path d="M470.601 448.031C474.986 428.49 473.364 406.888 468.76 387.61C468.541 386.602 466.984 387.018 467.225 388.027C470.481 401.775 471.773 415.915 471.062 430.025C470.883 435.92 470.208 441.789 469.045 447.57C468.826 448.579 470.36 448.996 470.601 447.987V448.031Z" fill="white"/>
<path d="M528.847 559.879C528.847 559.879 507.693 554.616 499.757 559.155C491.821 563.695 479.83 570.318 480.18 578.74V582.205C480.18 582.205 536.915 583.85 541.562 578.74" fill="#9C7943"/>
<path d="M592.071 385.439C602.462 386.645 613.818 398.729 620.986 409.212C628.155 419.696 633.065 431.494 637.888 443.25L665.05 509.174C668.091 515.883 670.434 522.887 672.043 530.075C673.168 536.105 673.264 542.281 672.328 548.343C671.757 553.341 669.907 558.108 666.957 562.182C662.572 567.752 655.667 570.582 649.068 573.147C635.082 578.455 620.767 583.433 605.86 584.464C599.982 584.782 594.091 584.782 588.213 584.464C571.969 583.872 555.637 583.28 539.655 580.297C538.481 580.184 537.352 579.785 536.367 579.135C535.474 578.305 534.79 577.276 534.372 576.13L529.549 565.581C528.484 563.693 527.918 561.565 527.905 559.397C528.472 556.529 530.071 553.969 532.399 552.203C538.043 546.976 544.499 542.702 551.515 539.549C565.94 532.97 582.382 531.456 595.929 523.32C597.599 522.387 599.127 521.22 600.467 519.855C605.466 514.569 605.159 506.016 602.375 499.305C599.59 492.595 597.617 486.147 594.855 479.414C588.739 464.435 585.692 454.654 585.363 441.824C584.881 423.577 586.24 402.787 592.071 385.505" fill="#FCC462"/>
<path d="M537.09 548.497C538.932 551.14 540.49 553.97 541.738 556.94C545.074 564.52 547.055 572.625 547.591 580.889C547.591 581.92 549.257 581.92 549.191 580.889C548.651 572.576 546.694 564.417 543.404 556.765C542.114 553.545 540.459 550.484 538.471 547.642C537.858 546.83 536.476 547.642 537.09 548.453V548.497Z" fill="#FFA748"/>
<path d="M585.45 448.908C584.113 427.985 585.714 405.418 592.838 385.637C593.189 384.672 591.654 384.255 591.304 385.22C584.135 405.111 582.535 427.876 583.85 448.82C583.85 449.829 585.516 449.851 585.45 448.82V448.908Z" fill="white"/>
<path d="M818 587.183H74.7547C71.0862 587.183 68.1123 590.158 68.1123 593.828V594.355C68.1123 598.025 71.0862 601 74.7547 601H818C821.669 601 824.643 598.025 824.643 594.355V593.828C824.643 590.158 821.669 587.183 818 587.183Z" fill="#345D95"/>
<path d="M626.116 580.758H370.264C369.659 580.758 369.168 581.249 369.168 581.854V586.087C369.168 586.692 369.659 587.183 370.264 587.183H626.116C626.722 587.183 627.212 586.692 627.212 586.087V581.854C627.212 581.249 626.722 580.758 626.116 580.758Z" fill="#26476D"/>
<path d="M482.417 587.183H262.254L251.622 434.258H467.357L482.417 587.183Z" fill="#26476D"/>
<path d="M474.919 587.183H254.756L244.124 434.258H459.881L474.919 587.183Z" fill="#C5E1F9"/>
<path opacity="0.27" d="M359.522 523.868C366.787 523.868 372.676 517.977 372.676 510.71C372.676 503.442 366.787 497.551 359.522 497.551C352.258 497.551 346.369 503.442 346.369 510.71C346.369 517.977 352.258 523.868 359.522 523.868Z" fill="#26476D"/>
<path opacity="0.07" d="M245.966 460.685L254.735 587.052H474.92L471.982 557.182C356.102 542.181 276.218 485.642 245.966 460.685Z" fill="#26476D"/>
</svg>
