<svg width="40" height="40" viewBox="0 0 40 40" fill="none" xmlns="http://www.w3.org/2000/svg">
<g filter="url(#filter0_d)">
<path d="M16 0H6C4.8 0 4 0.8 4 2V12C4 13.2 4.8 14 6 14H16C17.2 14 18 13.2 18 12V2C18 0.8 17.2 0 16 0Z" fill="#8DC441"/>
<path d="M34 0H24C22.8 0 22 0.8 22 2V12C22 13.2 22.8 14 24 14H34C35.2 14 36 13.2 36 12V2C36 0.8 35.2 0 34 0Z" fill="#819721"/>
<path d="M16 18H6C4.8 18 4 18.8 4 20V30C4 31.2 4.8 32 6 32H16C17.2 32 18 31.2 18 30V20C18 18.8 17.2 18 16 18Z" fill="#B5D232"/>
<path d="M34 18H24C22.8 18 22 18.8 22 20V30C22 31.2 22.8 32 24 32H34C35.2 32 36 31.2 36 30V20C36 18.8 35.2 18 34 18Z" fill="#212F0E"/>
</g>
<defs>
<filter id="filter0_d" x="0" y="0" width="40" height="40" filterUnits="userSpaceOnUse" color-interpolation-filters="sRGB">
<feFlood flood-opacity="0" result="BackgroundImageFix"/>
<feColorMatrix in="SourceAlpha" type="matrix" values="0 0 0 0 0 0 0 0 0 0 0 0 0 0 0 0 0 0 127 0"/>
<feOffset dy="4"/>
<feGaussianBlur stdDeviation="2"/>
<feColorMatrix type="matrix" values="0 0 0 0 0 0 0 0 0 0 0 0 0 0 0 0 0 0 0.25 0"/>
<feBlend mode="normal" in2="BackgroundImageFix" result="effect1_dropShadow"/>
<feBlend mode="normal" in="SourceGraphic" in2="effect1_dropShadow" result="shape"/>
</filter>
</defs>
</svg>
