<svg id="Layer_2" data-name="Layer 2" xmlns="http://www.w3.org/2000/svg" viewBox="0 0 240 240"><defs><style>.cls-1,.cls-2,.cls-3{fill:none;stroke:#000;stroke-miterlimit:10;}.cls-1{stroke-width:6px;}.cls-2{stroke-width:3px;}.cls-3{stroke-width:5px;}</style></defs><title>video and animation</title><line class="cls-1" x1="35" y1="161.6" x2="201" y2="161.6"/><line class="cls-1" x1="35" y1="90.53" x2="201" y2="90.53"/><rect class="cls-2" x="118.93" y="79.04" width="4.66" height="4.31"/><rect class="cls-2" x="130.12" y="79.04" width="4.66" height="4.31"/><rect class="cls-2" x="141.31" y="79.04" width="4.66" height="4.31"/><rect class="cls-2" x="152.51" y="79.04" width="4.66" height="4.31"/><rect class="cls-2" x="163.7" y="79.04" width="4.66" height="4.31"/><rect class="cls-2" x="174.89" y="79.04" width="4.66" height="4.31"/><rect class="cls-2" x="185.89" y="79.04" width="4.66" height="4.31"/><rect class="cls-2" x="42.89" y="79.04" width="4.66" height="4.31"/><rect class="cls-2" x="52.72" y="79.04" width="4.66" height="4.31"/><rect class="cls-2" x="63.91" y="79.04" width="4.66" height="4.31"/><rect class="cls-2" x="75.1" y="79.04" width="4.66" height="4.31"/><rect class="cls-2" x="86.29" y="79.04" width="4.66" height="4.31"/><rect class="cls-2" x="97.48" y="79.04" width="4.66" height="4.31"/><rect class="cls-2" x="108.67" y="79.04" width="4.66" height="4.31"/><rect class="cls-1" x="35" y="73" width="166" height="107" rx="11.8"/><rect class="cls-2" x="120.8" y="168.78" width="4.66" height="4.31"/><rect class="cls-2" x="131.99" y="168.78" width="4.66" height="4.31"/><rect class="cls-2" x="143.18" y="168.78" width="4.66" height="4.31"/><rect class="cls-2" x="154.37" y="168.78" width="4.66" height="4.31"/><rect class="cls-2" x="165.56" y="168.78" width="4.66" height="4.31"/><rect class="cls-2" x="176.75" y="168.78" width="4.66" height="4.31"/><rect class="cls-2" x="188.75" y="168.78" width="4.66" height="4.31"/><rect class="cls-2" x="54.58" y="168.78" width="4.66" height="4.31"/><rect class="cls-2" x="43.58" y="168.78" width="4.66" height="4.31"/><rect class="cls-2" x="65.78" y="168.78" width="4.66" height="4.31"/><rect class="cls-2" x="76.97" y="168.78" width="4.66" height="4.31"/><rect class="cls-2" x="88.16" y="168.78" width="4.66" height="4.31"/><rect class="cls-2" x="99.35" y="168.78" width="4.66" height="4.31"/><rect class="cls-2" x="110.54" y="168.78" width="4.66" height="4.31"/><path class="cls-3" d="M104.67,139.66l.7-30.24a3.59,3.59,0,0,1,5.61-2.88l23,15.66a3.59,3.59,0,0,1-.14,6l-23.7,14.58A3.59,3.59,0,0,1,104.67,139.66Z"/></svg>