<svg id="Layer_2" data-name="Layer 2" xmlns="http://www.w3.org/2000/svg" viewBox="0 0 240 240"><defs><style>.cls-1,.cls-2{fill:none;stroke:#000;}.cls-1,.cls-2,.cls-3{stroke-miterlimit:10;}.cls-1{stroke-width:6px;}.cls-2{stroke-width:5px;}.cls-3{stroke:#fff;stroke-width:2px;}</style></defs><title>web design digital marketting-01</title><line class="cls-1" x1="168.46" y1="155.85" x2="38" y2="155.85"/><line class="cls-1" x1="119.43" y1="174.24" x2="119.43" y2="196.12"/><line class="cls-1" x1="92.29" y1="175.11" x2="92.29" y2="197"/><line class="cls-1" x1="71.27" y1="196.12" x2="140.44" y2="196.12"/><line class="cls-2" x1="160.59" y1="81.19" x2="166.41" y2="104.98"/><path d="M220,54a3.74,3.74,0,0,0-5.27.12l-5.14,5.39A3.72,3.72,0,1,0,215,64.68l5.14-5.38A3.73,3.73,0,0,0,220,54Z"/><path d="M233.73,97.84a3.73,3.73,0,0,0-2-4.88l-6.87-2.88A3.72,3.72,0,1,0,222,97l6.87,2.88A3.72,3.72,0,0,0,233.73,97.84Z"/><path d="M234.32,73.24a3.76,3.76,0,0,0-4.72-2.58l-7.34,2.21a3.92,3.92,0,0,0-2.63,4.8,3.76,3.76,0,0,0,4.72,2.59L231.69,78A3.91,3.91,0,0,0,234.32,73.24Z"/><path class="cls-2" d="M187.7,65.08c-9.24,12.1-42.19,20.3-56.18,22.64a2.11,2.11,0,0,0-1.71,2.55l1.83,8L134.32,110a2.12,2.12,0,0,0,2,1.64,2.2,2.2,0,0,0,.62-.08c.18,0,.37-.11.56-.15,2.45-.7,4.83-1.32,7.11-1.88"/><path class="cls-2" d="M156.12,107.05c23.86-4.27,36.5-1,42.24,1.62"/><rect class="cls-2" x="192.66" y="53.27" width="11.76" height="62.73" rx="4.7" transform="translate(-14.43 49.6) rotate(-13.75)"/><path class="cls-2" d="M167.66,105.46a5.87,5.87,0,0,1-3.52,11.13l-6-1.17"/><path class="cls-2" d="M158.21,140.33a5.87,5.87,0,0,1-7.1-4.32l-6.49-26.51q6.13-1.52,11.5-2.45l6.41,26.17A5.88,5.88,0,0,1,158.21,140.33Z"/><path class="cls-1" d="M171.09,121.62v34.56a16.31,16.31,0,0,1-16.31,16.3H54.3A16.3,16.3,0,0,1,38,156.18V83.72A16.31,16.31,0,0,1,54.3,67.41H154.78a16.3,16.3,0,0,1,13,6.43"/><path class="cls-3" d="M88.22,75.92a36.46,36.46,0,1,0,36.46,36.46A36.5,36.5,0,0,0,88.22,75.92Zm0,65.63c-1.14,0-3.58-3.73-5.33-10.94H93.55C91.8,137.82,89.36,141.55,88.22,141.55Zm-6.63-18.23c-.28-2.24-.49-4.66-.59-7.29H95.45c-.1,2.63-.31,5-.59,7.29Zm6.63-40.11c1.14,0,3.58,3.73,5.33,10.94H82.89c1.75-7.21,4.19-10.94,5.33-10.94Zm6.63,18.23c.28,2.24.49,4.66.59,7.29H81c.1-2.63.31-5,.59-7.29ZM73.7,108.73H59.3a28.76,28.76,0,0,1,1.9-7.29h13C74,103.84,73.79,106.28,73.7,108.73ZM59.3,116H73.7c.09,2.45.28,4.89.55,7.29h-13A28.76,28.76,0,0,1,59.3,116Zm43.44,0h14.4a28.76,28.76,0,0,1-1.9,7.29h-13C102.46,120.92,102.65,118.48,102.74,116Zm0-7.3c-.09-2.45-.28-4.89-.55-7.29h13a28.76,28.76,0,0,1,1.9,7.29ZM111,94.15H101A48.45,48.45,0,0,0,98.3,85,29.22,29.22,0,0,1,111,94.15ZM78.14,85a48.45,48.45,0,0,0-2.74,9.11H65.49A29.17,29.17,0,0,1,78.14,85ZM65.49,130.61H75.4a48.45,48.45,0,0,0,2.74,9.11A29.17,29.17,0,0,1,65.49,130.61Zm32.81,9.11a48.45,48.45,0,0,0,2.74-9.11H111A29.22,29.22,0,0,1,98.3,139.72Z"/></svg>