<svg width="29" height="32" viewBox="0 0 29 32" fill="none" xmlns="http://www.w3.org/2000/svg">
<path d="M7.09677 8.45161V9.35484C7.09677 10.7781 5.93935 11.9355 4.51613 11.9355H2.58065C1.15742 11.9355 0 10.7781 0 9.35484V8.45161C0 7.02839 1.15742 5.87097 2.58065 5.87097H4.51613C5.93935 5.87097 7.09677 7.02839 7.09677 8.45161ZM4.51613 20.0645H2.58065C1.15742 20.0645 0 21.2219 0 22.6452V23.5484C0 24.9716 1.15742 26.129 2.58065 26.129H4.51613C5.93935 26.129 7.09677 24.9716 7.09677 23.5484V22.6452C7.09677 21.2219 5.93935 20.0645 4.51613 20.0645ZM28.3226 3.09677V28.9032C28.3226 30.6135 26.9361 32 25.2258 32H5.6129C3.90258 32 2.51613 30.6135 2.51613 28.9032V28.1077C2.51613 27.5376 2.97832 27.0755 3.54839 27.0755H4.81806C6.68839 27.0755 8.20452 25.5593 8.20452 23.689V22.5045C8.20452 20.6342 6.68839 19.1181 4.81806 19.1181H3.54839C2.97832 19.1181 2.51613 18.6559 2.51613 18.0858V13.9142C2.51613 13.3441 2.97832 12.8819 3.54839 12.8819H4.81806C6.68839 12.8819 8.20452 11.3657 8.20452 9.49548V8.31097C8.20452 6.44065 6.68839 4.92452 4.81806 4.92452H3.54839C2.97832 4.92452 2.51613 4.46239 2.51613 3.89226V3.09677C2.51613 1.38645 3.90258 0 5.6129 0H25.2258C26.9361 0 28.3226 1.38645 28.3226 3.09677ZM13.1914 11.7735C13.1914 14.2741 15.2258 16.3085 17.7265 16.3085C20.2271 16.3085 22.2615 14.2741 22.2615 11.7735C22.2615 9.27284 20.2271 7.23845 17.7265 7.23845C15.2258 7.23845 13.1914 9.27284 13.1914 11.7735ZM24.7419 21.0542C24.7419 19.9503 24.091 18.9465 23.0832 18.4961C20.543 17.3621 20.6094 17.3581 20.3142 17.3581H15.1052C14.812 17.3581 14.8819 17.3596 12.3361 18.4961C11.3284 18.9465 10.6774 19.9503 10.6774 21.0542V23.0839C10.6774 23.6542 11.1394 24.1161 11.7097 24.1161H23.7097C24.28 24.1161 24.7419 23.6542 24.7419 23.0839V21.0542Z" fill="#FAFAFA"/>
</svg>
