<svg width="63" height="73" viewBox="0 0 63 73" fill="none" xmlns="http://www.w3.org/2000/svg">
<path d="M26.6589 72.0002C40.8299 72.0002 52.3178 60.5123 52.3178 46.3413C52.3178 32.1703 40.8299 20.6824 26.6589 20.6824C12.4879 20.6824 1 32.1703 1 46.3413C1 60.5123 12.4879 72.0002 26.6589 72.0002Z" stroke="#8DC441" stroke-width="2" stroke-miterlimit="10"/>
<path d="M26.6585 68.3915C38.8368 68.3915 48.7092 58.5191 48.7092 46.3409C48.7092 34.1627 38.8368 24.2903 26.6585 24.2903C14.4803 24.2903 4.60791 34.1627 4.60791 46.3409C4.60791 58.5191 14.4803 68.3915 26.6585 68.3915Z" fill="url(#paint0_radial)" stroke="#8DC441" stroke-miterlimit="10"/>
<path d="M26.6591 34.3135C23.97 34.3135 21.3907 35.3799 19.4867 37.2788C17.5827 39.1778 16.5095 41.7543 16.5024 44.4434V50.7245C16.5053 51.5804 16.8467 52.4004 17.4522 53.0054C18.0577 53.6104 18.8779 53.9511 19.7339 53.9532H22.6739V46.0097H19.1485V43.8981C19.2218 41.9574 20.0443 40.1205 21.4433 38.7733C22.8423 37.4261 24.7089 36.6735 26.6511 36.6735C28.5933 36.6735 30.4599 37.4261 31.8589 38.7733C33.2578 40.1205 34.0804 41.9574 34.1536 43.8981V46.8917H30.6416V53.9532H33.2903V54.1671C33.023 55.7707 30.0295 57.484 30.0295 57.484H26.8783C26.611 57.484 26.3437 57.6096 26.3437 57.8635C26.3565 57.9982 26.4178 58.1236 26.5161 58.2165C26.6144 58.3094 26.7431 58.3635 26.8783 58.3687H30.3021C31.3247 58.3652 32.3043 57.9574 33.0273 57.2344C33.7504 56.5113 34.1581 55.5317 34.1617 54.5092V54.2071C35.7493 53.8276 36.8104 52.566 36.8104 51.0532V44.5744C36.9387 38.8599 32.3842 34.3135 26.6591 34.3135Z" fill="white"/>
<path d="M35.3188 0C35.0515 0.9729 34.6479 2.45363 34.2497 4.27648C33.4291 8.04514 33.0255 9.96955 33.4479 12.0276C33.8381 13.9253 34.6586 15.235 35.3188 16.3041C36.4184 18.0954 37.8739 19.6419 39.5953 20.8479C40.5907 21.5187 41.6688 22.0577 42.8027 22.4515L44.4063 22.9861L44.6736 21.917L46.2773 17.1059C46.4056 16.4885 47.0444 13.2304 46.2773 10.4239C46.0693 9.69035 45.8011 8.97518 45.4755 8.28569C45.1004 7.53127 44.6528 6.81515 44.1391 6.14745C43.5009 5.2823 42.7852 4.47713 42.0008 3.74192C40.8976 2.66477 39.6356 1.76334 38.2589 1.06912C37.3218 0.604129 36.3357 0.245521 35.3188 0Z" fill="url(#paint1_radial)"/>
<path d="M46.5446 23.5205L47.0792 23.7878L49.4847 24.0551C50.4592 24.2024 51.4503 24.2024 52.4248 24.0551C53.5448 23.8748 54.628 23.5137 55.6322 22.986C56.3874 22.6123 57.1036 22.1647 57.7704 21.6496C58.4844 21.1233 59.1151 20.4926 59.6414 19.7786C60.2244 18.9633 60.6754 18.0614 60.9778 17.1058C61.5364 15.5342 62.1779 13.6525 62.8487 11.4929V11.2256H60.9778C59.9096 11.1619 58.8386 11.1619 57.7704 11.2256C57.051 11.2492 56.3352 11.3387 55.6322 11.4929C54.8914 11.6785 54.1741 11.9475 53.4939 12.2948C52.7372 12.6658 52.0207 13.1136 51.3557 13.6312C50.769 14.0101 50.2305 14.4589 49.752 14.9676C49.2272 15.5305 48.7779 16.1595 48.4156 16.8385C47.0952 19.212 46.3709 23.018 46.2773 23.5205H46.5446Z" fill="url(#paint2_radial)"/>
<defs>
<radialGradient id="paint0_radial" cx="0" cy="0" r="1" gradientUnits="userSpaceOnUse" gradientTransform="translate(26.6585 46.3409) scale(22.0506)">
<stop offset="0.73338" stop-color="#B5D232"/>
<stop offset="1" stop-color="#8DC441"/>
</radialGradient>
<radialGradient id="paint1_radial" cx="0" cy="0" r="1" gradientUnits="userSpaceOnUse" gradientTransform="translate(38.7614 9.08753) scale(18.7978)">
<stop offset="0.4" stop-color="#ACCF36"/>
<stop offset="0.6" stop-color="#B5D232"/>
<stop offset="1" stop-color="#8DC441"/>
</radialGradient>
<radialGradient id="paint2_radial" cx="0" cy="0" r="1" gradientUnits="userSpaceOnUse" gradientTransform="translate(51.1258 21.6228) scale(18.7337)">
<stop offset="0.21" stop-color="#B5D232"/>
<stop offset="0.92" stop-color="#8DC441"/>
</radialGradient>
</defs>
</svg>
